<mxfile host="app.diagrams.net" agent="Mozilla/5.0 (Macintosh; Intel Mac OS X 10_15_7) AppleWebKit/537.36 (KHTML, like Gecko) Chrome/130.0.0.0 Safari/537.36" version="24.8.3">
  <diagram name="Page-1" id="VZ0EXjuJ15pWoha6DEX7">
    <mxGraphModel dx="2514" dy="867" grid="1" gridSize="10" guides="1" tooltips="1" connect="1" arrows="1" fold="1" page="1" pageScale="1" pageWidth="827" pageHeight="1169" math="0" shadow="0">
      <root>
        <mxCell id="0" />
        <mxCell id="1" parent="0" />
        <mxCell id="ALdv9pmXkEG0M57BJ0c6-14" value="AWS Cloud" style="points=[[0,0],[0.25,0],[0.5,0],[0.75,0],[1,0],[1,0.25],[1,0.5],[1,0.75],[1,1],[0.75,1],[0.5,1],[0.25,1],[0,1],[0,0.75],[0,0.5],[0,0.25]];outlineConnect=0;gradientColor=none;html=1;whiteSpace=wrap;fontSize=12;fontStyle=0;container=0;pointerEvents=0;collapsible=0;recursiveResize=0;shape=mxgraph.aws4.group;grIcon=mxgraph.aws4.group_aws_cloud_alt;strokeColor=#232F3E;fillColor=none;verticalAlign=top;align=left;spacingLeft=30;fontColor=#232F3E;dashed=0;strokeWidth=3;" vertex="1" parent="1">
          <mxGeometry x="-230" y="260" width="1650" height="1130" as="geometry" />
        </mxCell>
        <mxCell id="ALdv9pmXkEG0M57BJ0c6-12" style="edgeStyle=orthogonalEdgeStyle;rounded=0;orthogonalLoop=1;jettySize=auto;html=1;startArrow=classic;startFill=1;" edge="1" parent="1" source="ALdv9pmXkEG0M57BJ0c6-2" target="ALdv9pmXkEG0M57BJ0c6-1">
          <mxGeometry relative="1" as="geometry" />
        </mxCell>
        <mxCell id="ALdv9pmXkEG0M57BJ0c6-2" value="" style="image;aspect=fixed;perimeter=ellipsePerimeter;html=1;align=center;shadow=0;dashed=0;spacingTop=3;image=img/lib/active_directory/internet_cloud.svg;" vertex="1" parent="1">
          <mxGeometry x="370" y="70" width="79.37" height="50" as="geometry" />
        </mxCell>
        <mxCell id="ALdv9pmXkEG0M57BJ0c6-6" style="edgeStyle=orthogonalEdgeStyle;rounded=0;orthogonalLoop=1;jettySize=auto;html=1;entryX=0;entryY=0.5;entryDx=0;entryDy=0;startArrow=classic;startFill=1;" edge="1" parent="1" source="ALdv9pmXkEG0M57BJ0c6-3" target="ALdv9pmXkEG0M57BJ0c6-2">
          <mxGeometry relative="1" as="geometry" />
        </mxCell>
        <mxCell id="ALdv9pmXkEG0M57BJ0c6-3" value="" style="html=1;verticalLabelPosition=bottom;align=center;labelBackgroundColor=#ffffff;verticalAlign=top;strokeWidth=2;strokeColor=#0080F0;shadow=0;dashed=0;shape=mxgraph.ios7.icons.user;aspect=fixed;" vertex="1" parent="1">
          <mxGeometry x="228" y="72.5" width="45" height="45" as="geometry" />
        </mxCell>
        <mxCell id="ALdv9pmXkEG0M57BJ0c6-4" value="" style="fontColor=#0066CC;verticalAlign=top;verticalLabelPosition=bottom;labelPosition=center;align=center;html=1;outlineConnect=0;fillColor=#CCCCCC;strokeColor=#6881B3;gradientColor=none;gradientDirection=north;strokeWidth=2;shape=mxgraph.networks.pc;" vertex="1" parent="1">
          <mxGeometry x="206" y="155" width="57.14" height="40" as="geometry" />
        </mxCell>
        <mxCell id="ALdv9pmXkEG0M57BJ0c6-5" value="" style="html=1;verticalLabelPosition=bottom;align=center;labelBackgroundColor=#ffffff;verticalAlign=top;strokeWidth=2;strokeColor=#0080F0;shadow=0;dashed=0;shape=mxgraph.ios7.icons.smartphone;" vertex="1" parent="1">
          <mxGeometry x="286" y="155" width="24" height="40" as="geometry" />
        </mxCell>
        <mxCell id="ALdv9pmXkEG0M57BJ0c6-7" value="Internet" style="text;html=1;align=center;verticalAlign=middle;resizable=0;points=[];autosize=1;strokeColor=none;fillColor=none;" vertex="1" parent="1">
          <mxGeometry x="379.68" y="120" width="60" height="30" as="geometry" />
        </mxCell>
        <mxCell id="ALdv9pmXkEG0M57BJ0c6-8" value="User" style="text;html=1;align=center;verticalAlign=middle;resizable=0;points=[];autosize=1;strokeColor=none;fillColor=none;" vertex="1" parent="1">
          <mxGeometry x="225" y="115" width="50" height="30" as="geometry" />
        </mxCell>
        <mxCell id="ALdv9pmXkEG0M57BJ0c6-9" value="" style="rounded=1;whiteSpace=wrap;html=1;dashed=1;strokeColor=#B266FF;gradientColor=default;fillColor=none;strokeWidth=2;" vertex="1" parent="1">
          <mxGeometry x="190" y="142" width="136" height="80" as="geometry" />
        </mxCell>
        <mxCell id="ALdv9pmXkEG0M57BJ0c6-10" value="PC" style="text;html=1;align=center;verticalAlign=middle;resizable=0;points=[];autosize=1;strokeColor=none;fillColor=none;" vertex="1" parent="1">
          <mxGeometry x="214.57" y="195" width="40" height="30" as="geometry" />
        </mxCell>
        <mxCell id="ALdv9pmXkEG0M57BJ0c6-11" value="Mobile" style="text;html=1;align=center;verticalAlign=middle;resizable=0;points=[];autosize=1;strokeColor=none;fillColor=none;" vertex="1" parent="1">
          <mxGeometry x="268" y="195" width="60" height="30" as="geometry" />
        </mxCell>
        <mxCell id="ALdv9pmXkEG0M57BJ0c6-1" value="" style="outlineConnect=0;dashed=0;verticalLabelPosition=bottom;verticalAlign=top;align=center;html=1;shape=mxgraph.aws3.cloud_2;fillColor=#F58534;gradientColor=none;" vertex="1" parent="1">
          <mxGeometry x="543.5" y="218" width="73" height="73" as="geometry" />
        </mxCell>
        <mxCell id="ALdv9pmXkEG0M57BJ0c6-16" value="" style="shape=image;verticalLabelPosition=bottom;labelBackgroundColor=default;verticalAlign=top;aspect=fixed;imageAspect=0;image=data:image/png,iVBORw0KGgoAAAANSUhEUgAAAKUAAACdCAYAAADVArgaAAAAAXNSR0IArs4c6QAAAERlWElmTU0AKgAAAAgAAYdpAAQAAAABAAAAGgAAAAAAA6ABAAMAAAABAAEAAKACAAQAAAABAAAApaADAAQAAAABAAAAnQAAAAAK84kyAABAAElEQVR4Aey9WZClx3XfmXXr3tp63xtLY99BUCQIEBQoyqIoibQsS3KEJduyJC+KcHjmYSbCb36fcPjFMTGvMxrPhOyxKVu2RFOSaZGWRIIEQBIEQQIgAGLfG71vtde9d36/c76891Z1N9DdVTAWdVZ999vyyzyZ+c+TJ0+ezBzr48q6HJ9HEJzHxggpjxqoZ1/7yje6fn+Zny7P+hyt0u31S6vV5v1Y4Qk+Wukvfoc/vun71+ulr1aLu6Gr157xUlpEOhpvjd9QhoffG9/wrU8uu/cuB8bWD0qIr2gwHQCtX0DE4KHAaUWR9wWKfnQDDPhxcyN68z+9jA88xX0BvIGyvMtfvumVbtaLsTbgHr7slxVuuk3shtXmEPjpxgZ0XgZlkyXvi5OltG5XCzmxZeH7RGCmkwMKhnhTccXr/C65WXgXhPmfH+qB+2631wArbpuf9OJvK5Bo6PhdgdeCsVZLntv1CYfvBF4TYHOV8efb/JoXl917ngPr5pQWbC3cYWpsXvONhd2lLW21xnk2Hl7AWDixBGM9p9NLwziD+1XQeO7BMfuw3fHxDK/XgxsGMDPOfm8lGWqIEwYvIPNIH9LsVRLSCsjXGPR/2b2XOfCugLI2kPVcIVA51gAYYELZbxy8ePZ5bX691tWzF/Ee7ATWxJDPOGorLxjHx/Ul2HwpEG0MPDeO7/JtDx9y07EGkpdBWbPovT6vu/nOorR4BUPCzt9srPOtnLLPpZ0afXmsIO7NzZYyP1/K628ulCNHT5Y3Xj9UDh86Xo6fmC3zc3SG4Kzt8Ykys2m6TEyMl63bpsu+/TvKVVft5rypbN9eysx0KVOdBHZrvA3g5NIeRggnFZg10iSnEUvzpnlEXJfd+yUH1s0pLfF+yG0mySKWKyUk5WK6rmexwfno8VJeeOFE+fGzrwHCo+XkqcUyCwBXunoYL63xSXrNE9zD0Tiid95dKe0OnaXWCs8WEAcWyvT0eNm5a1vZtnWq3HrjleXWm68o11xLNJDgdx3wKDV08hsQSgnOhxwNadwkt/TVZff+yIGLAqXaozHaTs/1WrVOKct0jC3cCQo8OVNXUPFGsc9O8+EjpXznO2+Whx9+Eq44XyamtoacubgMV2tNEZ4oqlBpOG/cG4rOd8aR53jET4sedqvMAcLlctNNV5ef+9w95frraLQJTlGgjwDbtn2PoPOsqICIW5aWVsrE5Lobi0rK5fMG5cAFg1IQ6gTlaidobGqFC6DE2TQHILh+4cVe+e4jT5XnXzhcXn/9DADcAiC3l8WlXlla7pbJyWn8E3aEa1jGY3PPtccAhE38sjmd8gDX0VT3l0oHbPV7SwBwqdx0497yqU/dVm67bSaad7EtB11aXC6THdp6rpeJvzOBjhSWPC5bvezeNzmwAaAULN2yuAwgOlOob+jLwqGWFkv5+l8eK3/59UfL6TNoEvugxh4NusSVHqgYmwSHM8FOx8YEtQDUCbaqFPdal0CVk6ZuETY8ACsdFZr7ubl5gDlepieJf2we0B2Fc+4qv/qrP12uvYbQ+URgdqIjxNeAcUw2bmWrvauI6/LPe50DFwxKCa1Ndr1O4pEoEdxarU7AyjJ++ulu+ZMvP1hefuUMGNtSWm24IW1mq02zDLCWBQT+x8pk6cItx1vZORGMgrKv6ih6zoLSg0CDawpc/SooVmCOE167TE1tCvoWF2bLFBywVRYA4omyfUerfOan7iz3/+TVZfPmjCHCQKUUXF+8K3JEPJwuu/c8By4IlKNglOLRptwyZTyFv7GyQE/6q3/2annwwWdongFcjw4LzewYHGx+fg7OBAwnJ6KlVs/oiEtvBX3jGABFpjSMBIecsl4bo86YfOo5m3W5pqNFK71xmmDiglvboLfhgH2E2jbMuVXgoJ05mvJ95W/+zY+WbdvorSNl9LpLwbjH7aE3lYGLy+59kAOXDMoqWwoPedbJ0wXu+BSdmee424G82AlATk5Pl4UlgIFKpw1KVpaXy/LiQhlvCx5AFVhDzpMz2okaZMrodT4UptVBeHOJP9plb5cIe3p6BtmylMWFZcCnOLEAAmcDmLt3j5Xf+Z3Pl107AeakUBTkcl6HQUdDr7FcPr8XOXBBoHw7wpYQB4+dKOUP/vDJ8tRTL9I8A4TeFFxxhmZ9PDozHbhjH6FO7iSYxpXhoiUGmAKV5t9mvXLDwXU8a2JvOjZy0rG4JgzPNOvd3iKgQ51El3oF/ZPDkkJuHBFB440JOHVvZY74T5Urr5gqv/zL95ePfIR3+OrwfULyMiibnH7PTwpTIy6QMnJfLy0+3vVX4Eg21okpAUn/ovzf//rb5ZkfH4MjTvJuqvSQ0ZZWlgJoimvLi9msjquHwbVoMgVMofPTXREMkuEhd2zAMcCIsY06/aTfkAPwPzk5SQ9+BRXPEufl4MqdiTadrwVUP+PR029RSTqdHeXNN+fL7//+V8trr6MlgMULyUGcRjWIrt6Mnhs66qNRsjbsuga+9rwmgtHXa1590G+TU5pAQNAvS016ELp4NsBF07HoAbRWe6Is9ZABaTKVIf+/f/d0eezxNylchlZwtYDz3ICneeNpEKay5gggJMHedcNC8zo4Yrzw5fAIz97mhTD1TzfgsvqPzhKgg3tOwElXluYYGaKTVc6UTXR6fuu3vlBuvAFuyXfo5lMOqSSrdfd6ELLxZ6WKPpevIjHEO1CTVcJ8eS4XH5z1otKeL4Y5mPf1G88cNYp61lPzKv1/8H8j2zMZZsYIp6x5ES+5ga201EhTUi0AKZf8vX/zw/LEU2/wFcpvxpg9suBqg5hhptzmtTnZ5CaA6tuDjl509r5t2jN/baJrGCntJQ+t4WVY4TeCJBkq3/napj3/hmWliGCT3qZCdVfg4svtcuJkt/yn//RQOYOCQGlCZX+CkDPOZj9CGC38Snv4qD+jHpL6Ycxr7+s35zpHQta88HtdPefdqkc1ipFXH/TLVaAcZubaZOGN4T+b2m6vjQ6wlG8/dKz86OkXweq5cqU+O995NHwKXz3lGBr3yoLkcMHl/N7CErz6IeJRv4EH/fA4uGZTsPZ64h0vOC9Tg8YQGXqGSU+/1ZqkQ7S9vPraYZryx8rxkzwG0xGtNHCMKWrEAytazaYm0EGy9FsjkooLcHofPeKT+qB+bwTGWY8aIY/iEv/SiSot88zvPzwuc9uEhpPH+KhJ5OC5L+k4tKciU15/rZT/+l8fhvNsxbonOVR8/rY/NWPPdx75OLycq6B4MWjSq//qr3LPtWeaZkZxuqie+ijtx9t0uxl5OnN6CWDuKE8++VL51rdeQa2UrXcXzi2mQ3fJM13miUTpBAIeogLpQc8X4dYmPz41z83Hc4DwrKCNsx6yd68/XC5BOchYb8211RltS+YTm2z6LOUP//BhOhRbsOZZ5rm92LO/OW82CapVhxxJGdbDgtHBNeOoGQ636gEmevWlz7lfVUgNOEa5pJQO7g2L3r7WQwzAT6AiWlqU66LoRy5eWW4B2J3l4W+/UJ76cYJSCVNbdR12IH4eR1UbpQiylr4KjgqWizknuYHztaRLxMBJiOF6TlerX73/sJwbUJocgTUKyhS/IwvACrYLjhCWr33txfLCS8dCOT7FGPb4OECJbw1j1Bne6MHtWVyu+q/+vB9m+uA6vhulz+t3cCPAXGLMM+RKale07L0WHR3s3uCYc/O9cuz4Svnmt54ocwyNWuz2W6SiURbkzShZFakDziYterjUw+/XuBrUmseZp5aTFdijltlZHj+wDxKUlXM1CRztkMQrkw5z0tLnB4+/TMu2haE99YJwniW5xNuApIYdwDpXPpH7IU8qMxqWpTEKQN/L3UZlSv3hImySwDk6ODUOgwjnt05K48T0iKXlxTKFMn8J9dHpM3MkaqK0JzYhT06Vp595qTz22KtlkcoXn0NCDPaMJm0Qrg8FBLU0ZN8KDM9vd/jd2qN5xOmczjjj8Lsm7Eh3duf8/bA5U7nGZSJrUmueqNN7/Ikj5Y03z8SwXgfrHu0ko0OwJoTBbQXJ4MGai9pmrWqWiDk6GLVwpaRSUZsv73XpZ1gwWVDxqnoh7JzI5vSJMTj8fAx1Tk1NlWXaZ5XtfcbgZ+fGyne/+2w5fSpjS57JtcLmwFU6fEDcgzik8UIO6V3rz0CsdPWoaeTxWjcave8G8a/1+MG+N5diKkIko0mkhWhRRR7w4/kUqpOvfvVhmrbNAFFLH3SWWP30bBLj4/P/VBvM6sPwVaqrWnJ+jXN3Ui0I94X7eN9CVnA8vNDU+g6NfGnLrimzHqZuKuBDbQSAg85a2HLNel3f0CmJmY0UvL30HtMmukzzjSm+pKWHnDre2lneeLVbXn15MfIjFfT4V4k5cBKSI/3mSsOwaixx1nbUASXPSdfw7LMeH1VZMGVxAxeIhJ0JBaDNl5w0rTvLRWXmm2hZfK//D48LUNq8DZxp5cYjHBe20N///guYh6kSctB4DC6zCJfRXM1mbNSt+jpeVAMObwRjyGxNAbTRfVpM9pAFaIwYMXK0srIYBsICx3dOEltmbLvd7sS9Y+jOWMxptBl/Fk3GP+SevvONBd8UZBSm1z4DGiE8wjkXp8qD33oy0u4X/VCKc0WQmr4JqCrLLcFhA3w8iZ473jI0HuAtYuSnAjRA6nMOWxi/yYOKHaIA+ajQTrVMjRaeyKu09eTabxnU79r7CvUAXnkcB6cPkzMXwplO0t04UTq8m0P8+t6jT5MhABLbxdKihJAD+yDMWYRdc3mtiwLMh9V4Qw4gQMNCSFBS6NGrxe/iwgKAs0C6gI5hSLjw7OwJesyTvNPiZwJuxqiMSlJKwjk7Y+gto5CkSXotuIhS+uVDwr3S5pkjuJCemvTJRV0cgXMPHezzz76OZfzdZc9uvaDAN0xJte4BGi4jxNoJwvIOugSsXI13RiEpzYF3aCbL8BOybRNtjd73DnUK6AjY9+FH+nNQwTTYhowRwDicPfyZHD8yqR8yl6A0E0ykztzEBXg8cxw90i2H3pqHK+6kk0AGavbluBwvVxh6HIDOD3UjgIxbSkoOaVPvR3K/bPptCpkOS6lv24YBRw/LHmS9rVu3lB07tpedO3di8rbIJLLF8tprb4QhryMzjm/rDG/c0Rq+DxvMeFp5JOkwXp7l0KMvayLrdabVeCdUG9F5G2eM/MEHXyi/9Es3KDEEh6RhCKa6QH2YpYIyxF4W6BGdOHamHD16urz5xpEyj1XSLC/nOBbRmzkWn1OBkVgbcz1bFa83b95E2naUXZgrbd4yU67Yv43nBb0pE+Gwe56IOmY6pE+j5cRf5B9JUOxJFH8oMRnjglFUgmZVmXEb+CQTXnrhOLUdI1q8OxdHztixEGlOPMaj2TEDz+26yHBtWIvhySXHabIH3JLx9nYbRfam8fLJe+8ru3d3yuHD3XL8+HEK/A3ejZdtOzaVW267KzjNk088X55//kWaclgUqHH2YiA+esHGn7qDtCTKe4cvB2Pio7iUnoZk4btMe+poz+OM5f/8z90AnaWcZrTnuedKeeutk+XNtw4y0e00lWMB5fsCzb2xjZfO5DgVqgEhNqRjWEoFHcQrkE6fxpAZdmpaWnS2Dh5cIP2vc7yKX7lxG0BSGbdMUTkny649m8rVV+8s1123tezbx4gUSXS6h5xy4DD703XNz2j+z5//g28+IBdhkJFNHPXSEiIjsydogZvZpfzu7z5VnvjR0bLYtelGuQxnkVNqjmbz7UjJMEss6eGd+dCDk9WmOTo5vE4OK2cYLx/7iZsB5N7y1I/OlL/4i6/zrgu3wNzNDKcwl7D2Ua685poD5bOf/Shcu5SvfOWrVBTBpiExfqN+mQYLznPSkL+RsBGOOQRjgEf/fKWZ8ThiycryqfKRO29GBXaQuI5Auyow06GpHcYo1K4eaW71p6FrAmskLewTJNEBC6BROYhWUAZnI/yoiFYjABytBXmnPNtlqDYqLWJRHzO8bneOb5ZoNQoctFfuv/9j5dZbDpQDB3JCnA2O4kNNm1J5XhPJh8ABSnmfhdYUpMJR1ELhg8X4wlj5l//ioXLkGCMglrdW3RSOXK9HD1zQgJ0Rx4tRUCbSyWSBkBJZ9H4RwHbt3lluuO5ajm3l4YeeKG+88TrhwU1onrpYSHgIRoFw5swslj6TAYL777+/7N8/jiL/B+XoiVOAEpoU+qQrQElhN+A01lp4XmdaTW5yVNNtnEtLyrSO5WS/26Ra+fTXBYDOPwqtA+KK9psuyFWQsZUj20y/MLdC5Im8qBAxn7xWZGnOds7IsDQBVCtAfKQ3OoNkPVIjFSMkSD5DpgwtwVI067t2TpYbbthXbr8DgF7DfHiaeoMNcXekBD7ol8EplcnGo/0mhVENzVlmuSA7nTjZKv/if/sLlMrb6eMgASq/AQILsk+hDZdMMdM9cAEIcrjhHslZLAgtdfRDoQL8W265ibkzV5X/+MXHyiKrEqxgIW6nY2bTDJO+bi5X7LuynDp1ijnizwJK9KMMK/Uj7Ilyzz33lP1XTpb/8uWvlS6T0PpOTIPmAGMMVybHlBxBMTy4hASfyE09K4JIV6+/yCtgAucSGFa4FTUC4YdvrGykyfnnckSHRoErIJXzZdo9yyF1Ns3pBGKC0Zj1mq+EpMC0suJI2xjpyCPT0lL+RlvQg3uOMSGu3UHrML5Qtm2fLPfe+1HmH11VZuCoipkNCbUUBucM/O1+G4LP+0V979l0ZlojYwy2ufVyI1yAMgKPgC10u5DcIFvZqX7w4ZPl97/4KGDchsrQHncC1sJPbqT3JlMBRQLSwPDnKAxunJGfFae0wvF6feSpcqxccdX28oW//snylT/9XjlyMHvR23eslI/fc2c5cO3ecuxot5w4fAJuMFO27XEabq98/7vfLa+9Qqdino4CnYSf/pk7yqHDb5bvfPcZ6Ma4WDCNOy6uRZA0JCgseojl3mO101c+laNWPz4dvskv8m1eBzvERwL/7FDT17C01voYva9x+g2c1Xij4uWd1FmZBeeYeS9AYQZjnNVS2MTfc/fN5eMfu7Jcd13GK0AVRZrQMoFEU5t9o9AZc3QWm7qTbUS8WvNjetUE+IUfZ6sUt/r0UROmt+t1shcS7Q/hOqswIkgVhTaGb711AtBJDn9kjH80aBFvKLf9NAgykOoaKgPAfEFuyGX6KMKdCtGlx33dtVfSgTpWjh87FkOWk1iKf+ELny0HDx8sf/RHf15OnYQzLCEpIuH3O/1y083XlZ/7ufvKd7/9HJY9R5KD/vip8rM/e1d59sdvlpMnbWozW+U9rk3pcjGRIMgZUif9uvw9+2r4fNTPan9NKfow8iMuzvEzjPUcL5tHxjcap7cJ+sHXvBYSCQbh5jQPeCwGJQpf3/jm08ytf6LceOMeOOdHaYGyQV9GlTY9hX8CclGGcVRuuq4LQLhAA264MNgaGuJt/fHd6HsCFCgDAqu/jTkHlYbvkbF4weMmwoMHD47E5Lt6+LhSVZ/Ve4P1mfdkHuCo4dtUtQD/NddcXZ59+rUyf4ZOzWS3fOr+u+jV9soDf/lYmT2FzWN/J1RsoXzo9a9sK0898Ub51jefogNyExyiHeLDC8+9HsOC+/ZdQXRNXDaHlEI2o8Qr2xjQmVTxIJxvPgiuigYhd0KwQPKZ+bqISLOMsL+4NFV++NiR8rv/138vX/x3z5XXXqXHDiCFd58WbrzjXCZaQRItOK20yvk91WtyFbLP/JD92MXNc30mzxXo8rAEPBfZEOVHcbtRPwHKCIzA1atVMnwm0SdPngoyvU8eUwEH2ZkW3mQSAhbBTSON8UVeaT6mSkh10hK6OResKuXIITsvm8vkVK989Cd2lIcffLS0xzaVWYwl9u3bVX7mZz5dbrv9lqCrj2L7qSdeKCdP9FkzaB/N+SzGu/3y46ePlj179gFE1VNw5TiS00hzpWR4zqfmZSYgrvLhB+hXYCY45ZxTgBINxNh2ALqtfPs7L5f/83e/Wr785WfooJpyDLOVVdFxrcAxBbOVeGlxPtRzq5NtKZp/TR5GoXJbz5R1YqTxF8yARxvoApQVXKkHs54MaVhYQBkXoNOrvUwB6LlxAcJK6OAhF/rTJdeKEGmWVJbv2bsTruhIB50J5M3rb7gKkJVy/Mgcz1rlxpt3l1/6lVup6afLvfftL3fedQ3BLdIUbSsvPv9que76XWVimkWupqbLSy++wSJX6gapzc0R+RaxVyrrOQj6wP2McsjIUdtjXKQXFV27g7H1GAYy9J76yNR9FoA4fKRV/uzPXij/6l/9afnh40so+xNmDlpk080sz2aWaQTmTwRrWVbGc458W/VIpCjKrXrI/fpcgpIwTWcV3D1bmXSqZQZO9EaJ5zklzHwrWRXcPl9NqBzMGmrTPVY2bdqECgZdJxnqDEQF+DMs7aIBbixMQPBHj82Vbz30NTL0R+XOj1xDiBhHEEFwQoDdZWx8mUF5WyQVy6lKymYtVEpoCSw0460U1mrSPPhAnUxLdXI6j2wVXHGE/KCVkwvOM9K0ggFzZ3IPvfT9yN6by7/9t19nPtKPyosvdQsDT+SlmgaWaWC0LBiRHdVGjs1CBBZ2tgL8luUaF48qPWvLeo3fS7gNUJreYeFlZDUPVItkMipxlZga28jzAK3PeRbe/En/hq9uTjXJ7BmU4fTEW+NmBjIRmulNmxjxQCHvWPfsqbGydfNM+cxnPlPu/sQd5ZmnXmFhqikMchleAZAtVEATcAc7Tw5LOuxXCyi4CsRbaAONzJCKoG1tCnj4vnaRphEKRwEaedpSxcbUYjjf5NRmuCb6ZSr4MiJPe2I3+bazPPTgm+Xf/N43yg++fzq0Kj3yaLzjKJ3lS82ORcqasvQUl+YUlVp719qcc1VdtprDMq7P13sOUBpIcremx8p9BWWM264iCCICfKNF2ySmUhNyhhxKP0ThP/Jx9vTGGEs/HWO9ZuTEZD8WS5XbXX1gD8a3R8uJ4/Plq//tCUYwrqCn/RQWSo8FyCanxsoNN15b7OAszCEpoVu88moz3RGiVLbXAvScMpdEDekbpdo3HxRX0yW9pitldFNjKyRoXLuTCo6VvWU5wdo0LuA1O8+UFZr2zuTecvCtfvn9//hA+cMvPYfRCZ9QJi6rk8DkvhY6l0PXILRy0uELroTPAEKr3qznZhCiFjgxjs3ZpEZywdX27VuCw1lTasbE+uUNNzJz0kl8LXIVzt4rhOf0VjPSZ6qFTp1kKI183LZTu8xTGFx0y/ceeaP8xMdvIiNnyZtxVvQ9yRj4sdBDOrW3S9N/PYujbtveLgffPAG3RC/JupS33L4Dw+NXAD2CPKwxVskAoNIlvUlRZmylriH4A3OqnLHmv+fafLdMM52YcXSzGra06GmPKd5gWthlMKA1QVPfWijzDNWuMCza6+9B1nyG+fqPMhqWEuEKKiaGD3jXFOFIRvUcX5UJBSPSw6jToxAa+WD09SVeD0Dp9zkCIQEZms2fq+WqsAVTAIEXZIiZwj/+bSbPJejK8oUgHyGbTNLEzrKWtGZmTt5iRLe8/PJxhstuYFybkRo6N49+70c03+Pll375F8M4YXZ2luWkXZMIrSZ6tTvvvKv89E//RHnku0+hBpoPGeq6668qW7bSiz92NESApD/pEpy6aMbJtLOyTfp5H8+b9MYHH7QfwKK+OA7Tg5ikYj2aXAYv+hwrKNspvDKzeRvzkFhRZGZvee7FE+V//z++Wp58KstyCQspcbeoUbHljNqui5lgi6HdVAMJFTOtybh3MZ+MqXHJVUK2hLhaYNfQhBaG/lraUAans1nmClQG9xOdq1xDuAmI2sVwJV0/e3oT2Ge5DODCfLe88uob5ZrrdpXb7riFcDCwXeqUr331IeTNJaxktiMLUd+xMB9vzdBMT5Ud2/eVr9GbfO7Zg8hC44TVKvfc+7HyyCMvo4A/CQeGZmpRVWsld6mpkECvP4xOUDq6JjDVI1oBHfZ0MMGRH5XmLtdNRwhwdrFBnWelkGW+OXS4X/7gDx6Ccx4MpuMInhZcDm6oJYniM9+8aMqSC+I4FyPauLwdgFK+trbgFDEOHNhJh8GxV5oCEqgEUovXgk9MJifyeR7Vz/CJ01wX7ZEAnMmpmfLmwcPlKZTnn7jnE2XLtk00HyuoiRbL17/xIOv8aNaFYnhR20nGn8nfhx58BBOyl2neHW2aLZ/45J3l9OwSk72ehAOrB9V6pw4vysHJPo4Yox5QvHEZ9/4KqeYz2RvgEajNNfc9GMHERAf58kwMTbZhDl3EqOlNe8qRIyvlq197jOMQswmyO+OIkbBTJDq3Eyse744bgrLheAEvE0R8gnI3FthbNk8CShepsmloCJFh8k34C/q8aohtalZClcQ1it4Vmm+NP9oMKTqW/Z3vPMkqFUfKZ37m4+XKA5upyQuEL2ddoSO0mYxEVmLGYQcFuzV9cqZVpmZWyn2fvr1cfd3O8uijj9K8U7vxIyg1s5Ny5/f08C83r/KYb4ZOuhtahw8/sFcyFA07KqTG6HU7T36MuUdyTwe1HBruMJJjZR1j3rxW9vMYwbSZALi0PF3+5E+/U77y316NqdSqjXrOw1cEigImaM/hvBA2gwf5eAN/B6BEXB6JKFAW0TrycuBqh/GoO3DKSCCvk0vWQm9qZhNCBWOtTeJdPZo2ksqg8wsuNDVDkz1Zvs3C/K+9dqj87V+7r9x336dgpCiDmfLqEjEL89IhN3YYbYWtSq4ov/Z3Psd2JXvLf/nSn7CC2kn0mpt5b6dG7ohIASCVJ7OO+W2mZTTPMjvr83oe9fEBulZ2p1zCLiGuEzShc45m3UoKJGlucuIdeWml70yXSeT7uVnnWk2Av+3Ysv6gfPGLP0Rcsnwts6YEI8OafApOPIqVjc+rAKVxnoujWJ6+u/nmG6OWSWJ2chp5kmoXm3IOak0t4AiRL7MOuxDA4iKzBAnQZsQ52Ca43dpeluY2l0e+/SLma8+ge9xCPC50quErXHFaa3AkHJTDLobqcOJj3z9Y/vhLD5S501P0OGHj3S1wRYw25ABUrFpZzCrBmTKmd+dyDb2R6ed6/8F4NgAk6bdzmffqhO2J02GhOZlgLSgHGgSmi8kusymBS9nMzGBfwLvFJZZMXJguTz7+Vvnyl16CYZCfoGOZQQpNDXMdJzJZZ7Y12DD8fOCLjXFDoSHKxx9LKGMM+YTLa2haJzpwHdh6F2ClUQW1DyRolBreqVppb8gHfk4w+jQ0QaVS3LFvZyT61F74/Cwgpcbau3vrrdPoK78dYXRQjBvA9x59sZyZRb2DoL4Mp/zBD59CUT5PplOzY+kVOG/Qkxzb8K009riNXcW/BsVrHeQFXT6Xxg+yG9I/rFk1fTX/pxiOXcQ4dhyDafW5tlau6elonflKliEiTVOWbXS+p8o3H3yqbNmyufzsz+5mpT3XHE01UxTsqsx6d/IuOOWwXLg1bSKKh6oWVAXt38+C0cwdgcGpbY2Nk+zZdamJvWgy9G6jbTPuL98C2DhzbZOvqRXiJM+UceiFo+YZB+hd5uigSUt5kBo7RiZ0UQYL/h899SbDjSjFwZiLny4sUy9RBGOZKRvkWoGSQCFMHasWQcpWcmLFIacAW9uHLhLHLf6sRPV26OEDd2US1rp85q9ck2UbYQpjypOOqJEf0cMOi6GszLGtNS/OsIlBCxnz1Gyr/PFXvscwL0O51Gl6AeQrcpyuEeOczsLXWW6cN9KtKrIIOErKK7kNieDX9cE/ee8dGOrOlk3T1rAeoIJUap6AihoEONN55uDDeBS3kl8dV8g6yVVFKYr2BtjR9MSHhmkozr1RT5aBwfu4l7kn2SlLGUYTp/Ge9+DVh9SZt5UBeD7LmT9rj0E+UdK0LPPzC1hvbaUHTq6zTOLs/Hj58p88iIbETo+5mqq9xAWlQNlHvKtr/VlRX8qDLN0g+OzPa0KJv3z607vYKIn9chZO0blgjHVia1iTB1MNYKnX8lDobqDhy/RA4DWzPFtDBV4e58zIs8m5/ORdygFH85wH5Sibmg+b9emZzRhzLJf//J//Mibq0eqHKs+x9uDAWPlrQGMruNHubE4ZMSRwMrJUA2l2/zOfvZv1xGm2od7pDZP0oFXcVo416AUCuhpCQHFAOHdRASoYbeK9Dl8bnbbL4V1QDih767EPIJeZ5rsdzjgWOuOZmV1oOM6UL33pUQYomlKCIdmptAPpghDvRtEFKG1cV8OiAoXebNBLI42HT92/PzZLmp7kafD0FjJH/bJ+w/0AhF6MhC0gIyZjFJD1WyO57N6THKBMXCLHsrBn3kVud+dgF8OdnV1h4YR95Qc/eLU88MCLyPkWO7IphLrlTFOUGw7M6LsMoBIYqndmkVUIEycIZ2QPmQPZ8r5bULYepZ+Bigc270IEKQvCMRWs4zCJXg/QmRySJ6ZgCEY7RZfde50D3S4qIwcqGMGZn6fjyWjPZsbJnVI8y5BwZ2JXefChZxg9OxO8KKaYUHCqjeSaG+0aTllBL2iUGTzzCuLiADr2tjQv++znDmAuBgvvH8PyGyWC1jkor91+ZHgI5gias07KKyeNB/glVdS6OC5Ds8mU9+IEh0R1pnJdgG3ahN6Xee6zrAISC04gNK4wv315ZTOzWv+8HDpEkVmaaEi01XgX+jmrkGNUHA0gBVp14HQCBbiMW872j/7xZ8vuvbD3M28xo46hQQA2nK9cLVb06WF4yph55oZbnwta4xDQ3l9271UOOGPUGQDK+656rN5S4xlVc6riVMEtrbhX0VZWJnkczQuU2kJapLWYN5D4YGdDSNiwChK53vCpOkHVQMqBbTb9dDz8U5+6oWzexBpB4xhqQJ3NeI6oOKoiB8zhLZXbSfgoMA1bP8YlCSNxbWDiLgd1YTmwghimikemlMvJcIVFEdpjDp4JTMbLl1dm2Az2EM34sQCk+uNadGuHc+t9PV8YJekrQOmlsFDCE1jncg7ZhQRI7XFU4Bd+4YZy8007kTXZ97CNEl1hWXUBStm0u9TKx2kPypxWKVxgT+BzEWA0rnPHF/4v//wPyIGU/7NsZDzqphXhvE5UODDhaMRYa5oRnzbz8h+gExSPwvIrR9CSVEE4Oq/rXMPX75SoGANJQhrYi596JE0RhoFrqdOBI065xAk6rX/0Dz/J7rB7MC07joLdRLA5JxvCj9N9cinnCZoFh7Rq4pL7ZqC5IGmNwPNl997kgHlPp5SWLVfgSFvMUNU1jMMVUNpoXE6BxB4rkZw6NcU6Tq/GxgUdjGycfDYKPq9H7y82XSNsalVfecCWc5abgGUwn06NtULZks4aespSfu1vf7xcxwJVnbYbcp4EnIzQdOdRrM4CzqpSIuEhDmS/OyUD+SeK9kENuFjSL/vfqByIko9BDq8saxkMhwXF4YjbEi2hE9PGO+xxSW/8oYefZj6VPlc7waipok6uecnNt5xsVbNt5YkjWabzY4gi/l2yztmHdlGkaCc7f/z2b32qXHlVh56bQvIp3p9C3nQYCqkESxRDz2basw5iHdGJcVTCJtGX3XuTA5nzKVJVthTFwYuEAco9LmQe43CiBXo584so2hc75RvfeD7Gvg2jNtujIPT6UjgmkF4DGCmKI7mYhKq/WmD5Z4Vg3QTKVb9ijB+O2Cu795TyT/7J/czPvipA6ZqK83Nus6BpG54Gqp/UXVrzRLTNQi6OleEa9mX3XudA4iEZieWSZZMYYDIagyZ2irROf+CBx8vrr6WXUQ5pCgTkKEB9dqGu4bN4j7hlxlp/zHE4VdPH9LyJYBKrjBWmRARrF2hhEdbHzhF+yGeTDEP+xm98onzuc/fRrLOFqKvbovtySb3kkkZlgnVySjkkgQjMiCnfXP59L3IggUehUDQ51ycnotkfSNM2F6hto5h06u6iS+bYoR3fgWz5o1jtRKpHueLo9cWmKEF53q8SRDlLUI4pwEhAk4a8QIvFWpMGxJyj8jd+8drym7/5C+WqK9nRYew0ciW7PKjvkpXznSHWxiKa8LOkkvMSc84XkjJ6nMvT8H3GHFREAUC1MlOEMfSVhWMB1cBNnVzeR1mFbEEGrwcpSn94C58ZgJdkDGo219AMK/nm22FOGHa2Ihk3snhtXaRzJLSMN+PO8CsV+srczfPoV/ku4xjGlSmREdUwRr/PeCMUuGMac/MFrZ/Lvjjas7wywbypQzGH3O0RDSVWumvCi/3dfThwGU+NbfB4zUWuTzl4WL1LqAkXhMMkZrTNE702zflKyA4WCETxXJn5NCqDb33jjfIXf/4kTTyKWLc6cXIXowfOppucxnB3JefkFOaLrJJpI6QL+5EMBiDCBfC5IlFRPIG7eD+S2TyMPz5sRYEj947DDagcpjhnBkKn77R6iqc2V35AznuOgQXfK+LYdiQYWwAp4ua7VKvgNQCpoSw9Q31HC6H2OfOYB833wj47FxkOvonCitsL6yspMB7T4q+UGY/01MqQZRAeDN+4dLyPsrRS+H1wB1upTM+Y+7dH2PqNL/KiKd/RePUgxXl26ONM+fznbkNFeCUK96y6QVfkLWmWBGFEWOaxroaXKeFVPB3+jKaCp772kRmoXnLtByNPIqS8d35PzZbi0svMNty6qVd++jNXlv/pn/4859uYIuu6P0eihz7B8iwLDGP1mPLgkXFyWrdLelIe4joyJgglZHO7OTiFn3hP/HEeRp6Gyvjgefw15/xeWTivBl9E4Q1Ks4nHAqD5CxO9hHb9PkqK5wGoQSBe6M9SVLTxXAvfCM0nOW49vNfVeBs/8d53a4nUL88sKcNaleYmXwwrAOu5+jcHEoiCMWnOcASXoz2P/eD5oMJJfKrb/cLZBvGwkmlwzdeV5kp5vBr5WcMpR95cxKW61dAoQKujAMysgR5rZa66QB8JJWspDzz4evnLrz+KDDKDOf6emInoNM4uHHOwwNJFxKvXYcLMKLIjANS8iIwVRNbSJsN9T6GYccpNft9j4r1TPLS0911LzmGhreKUJJKVJlLkoNIGSPjYkANAhifHtwDlhAJLUFEq7BgRnIr74BbBSf00K39yWr5znnbD/SJ+vg1O2+RlXUI7wGoYrEQX1xWscZbuSBVn6ag55GQ6R23MFPNC+pJjh+1CPOfVRTqmoRHU0fJ3fv2vlU9/hoUrCHsQi8zYrrtRRhl4oQ8rnCWQiM2n8Sp+VuF4+PjirgSknR0PeaZTHiycPsKwEbo/jCtZfOGvX1X+l//1b6IummDcHCUXBbvsDp3h6+LirL4TXALCdNdEE3vUEn3lswCLfqCrGhj3KJgAmSAFoAloC1EgJ5gzHoE26vTjkaEbZpWZ+ZBXtldyNLI3wO33FkQD/Pot74xTMaKmwxzUtyJJxNBEbPo06UrRRB++TfkwfEYFiC94Xt0o1RFqfh/hECPmaesBZMbiViybyp//xUPBZMwRrdc9h7FGrSDeN2R5ThGgebDmZFVdt9O0EvUlrsmU4BiqjKyJrGdOprvEH3OUWPTUZnuJVdX2oPOy521hrcOZwfG5xUSt4CapaGjhXRRgFHzwywSiNdcPpZXCCXElOAc0wTkzVMMQXL7P8AyrCaWJl7RrTQVA0p/X+jcMD7/0GSGG1XYWif5zRQv94gw+1GfS5Q0H/8aX6ZPtyB1r7MNwXZqlyrBBh+FFgEMaMoykx1BNPKUC9wTYAjrijA8v6ieacOaInzo9V557/nS5/bYtYXUUDMpaNGhGk6Sgo6bvPDFlbp3n5YU+HuqjMiMH5UFa+1ipa48pMXLy5597KczoT8+eAaTzLC5AvYhafqGxne3PsAN4nAMyFhwPoSZdFICXw9oa78Nf+jKMdIaQzWzyI98Ynv6q30xPdmKUveU4ZmUNJaGU3xvqEBxJGH4Fehy2LJX+0e+4HqRD0MhlreQcnuXy3CUlnhu6/cbnzTlJyndDkUIfxGoLERWm0s3ji3WEscKUaJSD7OLxWnwduRRBkpOOR+viYV6u+j3H8w3hlO6ipdPotw/rbmEyH6wb6SI24xQU5gF5+fyzb/GeifCuzNCfZ/z0JEtKM4ux4SarCL6gm5FUGQchZUElTTZ34eLMdTTrWXBCJeLVK+/zOzmHAfkQ4GRCuBYYFVw2m4LKGX76M+N9Z/g2++QDR4CA54OqEMAVkAlKw/DrDFtOCA1x8K1ngrMnnlxVf5k6KZVGz+kEl9fptz7zHD4GlT5THPREfmTs6f/SfuWU7tLmAhMvvXSYpvv2EOOmFCxxqa9cG0+9l7p6Hd7jx1Ss28mqI0votIw7QG+LZFw+DH2NvTH2NUSMfPONWWz2LHg6QXjoTEL92XRdOE18G4XU/EZhRtRRHMRTg/IiAWtGjh7Vh+fkoClPxrXPwoMRjXA3HwKcGnv4asDYE5j++UlTCSIIf4KghqgAYAPmeMV1hJHfV3rXnmvFy7NFmGkz+KDHeFelNSGb3N6wjaehLz9ax6/SoZV3srz66rHYGAHNH9wzg6xMaXUElWaeRh6e/Xb1k4u8i7KJTMiMiM9rHkXFTZFWmfOb33ydnjarqLHYwLJzuO2dI4+ZgetxkdnIL4vsGqZ1kitDuPFUa5yQSXQsVwgty9oNMmvPwQC5hZ2MVPD6DTwT+cKFtvro7xa7mOSxspvK4rQlJadZ3oRdFPmOUS73O0dvOYY9qXsDjbFbmetBLrkQGIMMUenoxbumT5+jPUa63bOR9IYZIPSu9Ob5XpBAT9ijorGgErfsv6K7dcW57op5pIiDsppWyJ2D5bC2Rl0W/2ozVz6AHjVHWl3zyQVkWaYFKy2HBQ2fADjr1TDUfcrNifscoLiosqDoBF4v5O5NrDN6kDh5Zv2NeEcAWAOO2oqHpKg515fJ74d3l3rVYCr5hhRlTSQfzIs4nNT+5JPPk8Eq0gGBXJUlWhbdTDw8XWrkxEocLqzqqsNdWLKNYkAdFu5Qp/NPnBrqOWQcgOa+MvZ6e8TvwglqChzfd9s9F6t3c091bYKyw/U4oG27KgeLKNjTnmYmXwvwdlfOxLKEseuY5nqxohkVgGG5HrJWm2UOOyzAtYhedhlFnmGtYOUtA3WjUZfnc61y5VK3jRY6odRHf7uC4UOnzeILZicfxN7ffCfMpG2cSrTEfG2o4w+aAewEFcLnHi7yFesH8TbEjcgVgZllNBAz1gFMy1wjYdeAWmLplyfYwYMsIz6OaBUEZeOaeOvt+cp9Q2TKYSRQY9MgSsLJefLJ4aP9WP6vNX4gZE9XXXM/lzYrYlDN8OVx8S4yBeC5+kMHruFWeVFERNzWhAoPy4tsRRGXrlFE8QASp5FOsZCWBeSKjJKwAhD6HG7g2cJPbIcHF7BIe2xZq3wX4jPCcRdgWahTVAQ59DIVLRZnIHwHBKZZNa5HGldiHR/8sX+jm6YuM32kDXCWDW+S7IcuAWclsKl3uUWJdl9v11Ty1p3FemgycgQMSRcATMRsQioTvseh193WnL4QQ4AwoQnaUCu8rVDL9pSAnJefvXRhbcfJuKgGpKuW2MWXQAQRcfRXOuXFF98sx1kheO8u07U2tKZNN9E6QXuOCrFuUGa8Zo0J9ND5VF6VUPPpyy8fpNDczo4MJ0M1f3NlNRe8soAv3bkYP2vlALz25HLZvoVmbuE0EbtNHGEDliW41hLxSo9W8f3eGVb6YEGFDmCkue3TFLu20faJbeWtIyejeQ3gWnFQUE9OsPbOZgqXPI3l9Chc7QtNnWotF2YYd59GOOwiIHTtccPsMSiwbbM2APNhH6BF9hRAPMVGBBMTbDFCCHLPGTj48tIJhl7neM9DVFRLi1SAqR1ljgVnl+GmUq8xrYuFmc0OOMyfOVmu2s8uEJgWgmkSRyWA4y9CU2dyU2m7FjzAdn/0EJHMgOi4ZTnFLY/W66QtwI9IMU4n9oXnj5R9zpnRGYkugNLgw+v6vAI0POXPukFp6Fn7jNDDGB3NyXgjbn5ef+04b1xgiVlwbGvnzEgze4UMbOoNX1yKc6UGm9hWueP2veUXfv76Ys8PfMAB0JKC92888ApGqU9xj0xH2zIzvVJ+5Zc/xdKCk+yvDdWQDTbYX7ywUP33yrETAEt5Ax3rxORi+bt//7Plqivgpy4+Rspi01OSadjP/PhM+YM/egQw0IAiV2qzMs7Gqv3eSexLV8qn2Zbuno/vApRJjxz5X/8/D5VDR6wMM4CQfSuxP/3kvTeUn//81UG3+DIDX3u1lP/39/4MjuPYuT19KhkVucfM0k0kZcf+yfLrv3YvG6vqn8WqtPpnMTB39HUE7eGHXy7f/Nbj4JC50axVCWWcQ0DgOlDCuToivCTHd1Z0SlFZcnp6UzCg++7dHTHICNPm98LDXx8eBokwmBqUieUYoYEJcuUUBU2FDdtM5bwo3ECOQF6PU35i+WSMT4+zaX2XJqvVpwL03uQ4ChhW2E/8mpD/XDmu7Q60jM0fAJAzbB5VuocB5VuAGpmS9TAXWZtdmU6Tuw5y2WYWap3osAIubGeicwzueowwj9M8sq7SVLds38oa4oTrXCQ7TTFCQ+pUlC8vniKOFSqBwD/BezlmKbfevB865KgpQ0rX4gJLULhV9dgRjmPQvlg2811HIxAqr/k5jurFzbBcFHUZ+bcHmNknAaidQVxgc9Up1GvjR/BLutuLGGDDWfkeoYEjZdUcYm06elFma8F58WVhM+1worMSXGPq1Mn5nBM+AKRhjgBC5lWjHX3cRF2RdPGU1C+UC2J+OKwvxnIJck1Ec6iCTp5wFQYXRFVW42PoalPwFn6lrwZ5seeQyQj35LFT5cShE/AU/mhOJ+mYTBC+1vH79rIcSWxPvATX2122slf2tPKinQF1gZyffuIZCpumFybpbguCc+fW7WXbDMtfwxYnaPpgwmhtkCfZQGCsf4ZlEjfB+RFF3DyeVqCLqFC6nTLT2V467sawQJPKMnwTtP2T7eWyxFpMd33k+rJpxnyjY0XUyqp2omxfxug1g+bSpoAVF8aQFSfoEFKdgku6AICycweZ86r9+wo7CpaWG7GzmUGhYzRG/IY0iZ9d23cTL6vloQXI8XxGr5p0ycGqxC+DWK8TmOqrXc7l9KmFsLEMSWEQsHFkSSvPRpPP7bliJiUb4Aw5Qje4jDhqTxOlLeGRo9iy0eNedoTHHiJgcapELmqa31waJfREAYmW0adPddkrhslN9PDDAsm1GBk1Up6/he1O+siBtPLl2mv3I0YQGzJeVCgMFVZQvTz/3GtwoumoONoP9mkm7aBM0dPuw93tOLmkoRVqwgWhltnbkGD27dkKt4QToeYJOZZ2bJFFSaVBANlbt2PSpZPjrrJb4G5XXrmFcN1l7QxkAEScu/3ae+7Qgph/9uDTYIVcBUzmmwWdGyD0yp5dyLJ8J4cG1gFc89VnY+TzDDrgjiqy5JM+jdIRjLXDw8N1OkWV3MNHrYXrWR47nqA0YA3EIb6JY43o4KtzxL4xoDRkQspRBq6jV0fvLkY6SmHzhsKmD1RkQOKi/vwFmRSyOq5K8jnoe8dHkUwEfLEy1t5dvvP9V8sKXGTBHiUF0nEnLqx7Dly5ieaWjUrZuWznbts8d7ywQFn9ARC/+PKxcmqO+ZjsF0npB+frICPu3bUZrrkcTXRs/cE7lvaKQ+5lx+mq/TvpZbMaHWtlut5mexr5inSGPlQwgSR74qFbpADbyKl333MDLcZpwEqh8h1qSMAucM0NzuRVn3eG6AKx7j/Uo3nvIK/OL7PtNN/cftu1iC3un06PHyi6rJOdrTHobaEz3cWeQ6771FcnKjjID8f1e3B1QZkMwfw/FzTeMevDg/mvmDNG8+IiumohzrCMIHsqROd6POwIMk0BkqgyJjYryLliWT8oTU+TJqNOByshm4J98vCkohuFY2FHxpAQv0n/l54hGZdh0UTCFRcYKZoFWK8dpFDU7xED/W7kq6WyhW32ptixbAZOtXv3ZgCjoQhz2Gm2uyjFX3zlMD1qsgN1iz1Yd8RwuvBu9hFSTeNKc1amXFxBgBAt7KwHl9uzC67nol+8d7MBv1dFJbvTvxxOBbzqKIc928ive/duKjffeFWIFE7812K700E5H9uLqC5zxEuFPOFQ453r1MVfLzozDDsgR2zbOoV/04j8agtkJ0dxim9aqKtsFa68ag/PCMOmlT/hK0f3zp0z1ClGYXi6RCeHF2Lmhx2eHqZ6J2FEWb5DHGQ8Cbm3K/X1g7ImZBCLF/XI4I8ePRW10mZEl5OKIje8i2eX+pO1nPhs1zi5Z8+zP36ZSwuItxSAbtu2LQBsKkzotm61J9ro6WCXi2x49MLzr1HgFL+iMWCFtxDeCls87wZUWbMNJ1YbczQEbpT7VvbK3n0sykBnJR1NfERJIcFBBIGjKroO4aijtIOzZcskG1bdCOdWJ6kkAQBldXB4gZWbCeTZDoRxqcgXYGqFNm+eYPMrbQsAIFzT9MSKvHDvyN+gf7lcex1iC9eKA5nvwAYwBtAVR5JYybtkl2EISss38+HwYToSOKvMxbpEycV+9Y7+zQGJSwKPHjnOdSU4n1urkuQKzncM9PwemkJUnlMp/tKLBwEnfItrdXty0c1su3LjTfvomNABoRDlfi7SJKhP0AnziEn1Nje8E5hT020KPrmde/SYHuleZJ9s2sfwJ3fctKkNN87U5u4UdCxEN36SOylvIg9GmgFprCayxK4bu8quneybyHCoazXFevAE6/YrcmILO+dQZ8E6DCqXc6u73cqTROFwJ41mLEblTmypPqIyQL+V6qor0WPyjc21oA4qSUuIOwGi82frhb1JMArICN48J/wjbv5oFq0q9wsL8d0BJYQlCAkewk7SfqNkIVO4HcFgrb0XRur5fUW4gxpvhswibNPUEaeCdgzjAbSbAOVtt19JoduxgDPBnWhMy8uvHKVwUfwJYArZQqSnwNRhbANpJm2SEdYC5PNw4hOn3E3XZl8OhKKaJtR57naCWjT/ptWwXO7EEaMEewtdaNqSutboGOPe2zaXcsO1e5FHZ+n0uNWKTV8CMRZ9IIO6WjZ4jibZSztvc6xDvyMqm+BbtjNH8/zaG0e4TjmdOgAHRmW1nfn4VC5VClEn4ifFD3PUW/n5elwA0rKNYAAlQDx5ApktHBEEHrwRF2vd2XFvDCgjrhq4N83REHP6FII5hZrgMSOSuGT7fle/XUvwhd1nYdpMkvEAYpnOyhtvHKeQGTVx+C+40HzZTnO3fx+dHJpeiVEG0+zqueffhAJkUMjInrDA6NP07QdQ0sA9nQ1VXkePnoar0jSRHtOpwccEvehdO5FTqQb+KztGWADJ71dczCFKH//cR3PNiMwEI0p33H4tRcheNvbkeaFsmR0QVGawwlj2ptEBSof7JWpXuYcev71e97OUBoHx+ut01k4JPkAYecp74tu9G7N/0qw/nXxT2uWcBL1+ZzlHWddwsQibZWg3XD4zvgt1keUX6vn8/iqo6nm1zySQTAAgAtIj5CNKsMHn6g8u8s5mLcvcQrcgO+WFF94EGGoVBZ4VwjnoFCi90rAAhxZBe+ToPHsUngIM+AEedkpChgOUB+BiKAHxZ0Fa+NOY3h0vZ07DOR1WBKjG2+mwIAOdp1TASnwWgB0VrXDSYMGwtRDyHZKWCnH0lFddsbl8BNmyu+zuvYLXJtkOSQYjiLPZVfaERgCuWmnrFnSXEZSVTpWWW1YvsH6kc/bh2gQgaPmhIrKVIU25HSLDtcL4sfepKYnYjPESnERYnn6a11aqRYaUhs8uLtgNAqWRrklYveW8gPI4DFshWoDoLHhd5Zpxc4k/sawM+ZHqJZe8HmOo660YOuwxvGbzrVHDOLKbq8N11AIAMq1annv+DehTvhQwWi7JEeElgHLHdjTTAplruV+fXuXhw3OhGFavGdyfgm9ReCe7EwAAMrhJREFU4FvoeCi3WdSCpcqCglJZ11bBNCsy2JOeiHF5LHyQYX/q/o/jJzteGm0IXP0rHoS+FGCZT7GNMmHbHDsKFJZAIgzOuEgaZmd7cHHBkCKEhduG9l075OKMfytOEK5/me8WUi2oS8x8PidIXC1bcoH8zv16fPd24fuuHsP4NxCUw0AHV8QnTdYczx4SnAkw85VtEpyDby7hIjkJoVLYsXoY4HIs+nuPvgSgUF7TfKtgN7H2gLVQskNQsG/8ziOMicPxwmaSJnkJpbcWOzt3bKVZhnYW67LHq2WOuna50fycPWhlSJTWpoFB8auuZCMkCt7r7JVnQkLZLiQYQTBc06t+M8MDdHS6tm1tl5tuvAIOuRBqquxouRaolQcO2XDvHnknEAXkjm1YOEWBIzdTCZewT11ebpdjx+iEaWtJSyAwbBW2bJ7CrI/UK5fai5c0OTYgNfz1uqyAWZEEu4eLsEqeZTJ0xHkBbvSLC/D+dl7eOUKJl+C3rz1vF8e53xmuBWfBWwHa6Pu0DHr6mVfDMMFeuJmfozEWhvNKWuWtw0ust0gNhzu64ZH7ineQMx2b387Oum0McGFouFQ0KxoeOnQabske5baMhGuFEDubZhjWRFcp51N3qaWQabXJDZqiMsj50iTtDKMJW7Zsi568+tN9+7ahR035sDbzXXdnIz0Cufbe1XPu3C5txi+o2Ga6swnu3UVHu1zeOnQM/3LqDopzmniAuDm0A1ZEAZiH3waATN46XdIh4xkC3BbhnfFe6VlNwAaBsgKynldHInWZCT7Pa+oQl/o/3zdrwzj/vZlhwclJsgknTLjla28cK8ddZwsOmBxNqVFdoU10h173Ecy8AA15QwhwF2u2pb1CwW/GnzSq/8MDBao/9yqfn1NRzSPi0Ml0BOWunVuoHBYGYAKUDvmZPmAf3yopdjCRO/TWScCoSZmcHS8oxHduZzBe8BO3eWWYvnQ5RdMngGhbYKK9cvWVe6NZxkPQu8j2MYsLdqpYJhowOKxrBTM/rCBbES1mWJ9e+0k1Av7lt5xM1HqcdOIgD5dhSWuIKZeIrkv8TAJGXNDSUFcf11vO1lAzW8I9RmtUsvfquX588WdN4OxlyzEX6aG2HN1gOPDVVw8H2IzYvwAJzbUy5KtvHKV4bOociVG1o7EIT7CS2IbFhk2lKhmbby3Wjx9fosDlSFjBZAe+qQyY4zG2fc012pAtACjlRgDDXQ+FuIWky7S2yvGTi8i8h6ATiuDSXcbY5bDaPeqsYKvzKDkyDwNkBxilcRPPqCyRKtafx7L99OxpwM64M9boyrECzoo1M+14u6ZvVJgAjqzUS8NtHnG6NJcBZBLzOjueypiXFuIlfnZxkXXQLAeLD6V0snkLKjLk4oI6t+/opKTBggWagjYgwLL85VcPAiQzC4UN7+p756AfPHScYoLbkXtyphjpgCj1ezvglDGHh+ZRtUwbw4xjJ440esulsKUMa3E4j2mTI12DoUef+Tp9hwLlspS9Ggei5T5tTBcwreuwW+93v/cjxokBDvKfuzPIkQXiBLM8HQGyyQ/uTtzqII3DyiH4dzEe3+vN8V6eZ2XsMJtwnmuGKwHrAsr9yG8AaOWQe+9kKDQIMgeDDceFNxxZaXxyaY4yDbBXhNu5sym5tNDeJVBKHI4M0U3POKyXzbY1qnIO360WhH1ysc6UI7tR6DYZHpNTM3R06L0CBjlIZLxNaVRn6VAhjonVrAU58j1c0PJSD7iTprgL93V0JdU4Xcz84boAbhFl9/ETyG5AQFlU8NhT3quyvS0StRflzG9u6ZLcT3/SsoI95FE6JM8zdUBxI0ULWxI7f9mr99uBHAlNwJQf9KGMxc/MIHsCwFhWBqCqBz1x8jg+lljQ9BQAZU690y34LkaP8Hsl5nqGwofNOZmCQsF6XUAyKk2WsZVr2mVRcKMc/0LjWT9FZ8U0kvCoPe7NQlNor0802KwBDg+51ka47HCYyYRPiixMTb60WnJng6roFlzZtGSHSxlPCrIDZHlJo5bpHfSAvuBw9iHhOBoziVx24Jr95aoD+2l65+JZpodIiRsjJEZQNuGfD6VFbsefjFBbSxIdnSq2Pke23FoeffSJGA51rnwSohW9coF0KtvK6VI+M/+4xORtP0TZi5brC0xT0IuKf9WBvWX/FbvIADtoyM5RYfAC57+C4cYct2/yidQmN1YuDqRyvjQnXRAb9GUL2I8yv7TQnLewEa5JkzKbf1EgSWakdxK7vlZrDi7DLRyLEy58kp/rB2aObzvNIsNewNTda0GmzWbgQ4BY9gKGQkvGKa38w6HsFDhD0RGTHTsnYv2jHvNkovml0CfRD9398TuwYr8rqJcLaZEuoGzmDUjwablznHF0GGdw6gA9r9U/yk1NuwsxLC4xke7QmXIEvzP7nNuCiR3xqEoJ2RarKqfUuuRNyLuIhKqc9jA6o6gwSfrC3jLqw0q5525o+8Rd9u+wvmdYF4v7OQwAJljoVJl+547pkFudzxM5TqZYiUNjYwatx4lKKrMc37g8ptntOFxmzSD0VbfeiJc1jiSt18m8KQGSanlHiqOQiExi+d+9200o6QAwOqIBwRg1eFn7QvwLnbPJujialLUsDKZzYccILQIAEGq17W4W9liDMxNbHw60rNyH34i7GcnRtGuewmyNzzE+vj+aQGdbWm8FnQbCnTHkuP4s1tw0z0w+025R2u3MTCLXtVHOb9+hst40Ik6YDFsIOj5apk/yzDQLzi5y8Dxz4J/BjnMREWGWYUftT2foZLUQQbS/7Kk+4l0H1Y6zIDtU7ANXpmGvfaIYUZIXs9LIZGsWS3tUUTTdNEwAmopBmpapPX0OgizXHdiHbSidQAEJ4JVlzbv1Ou0oteN0BKlPhUFAKTt2bJHhk89UgQAGsYgPjuEttJ0j8g0B5SC2c0RgpNvQ+aXBrw2mmWmNymbRGlY56zk+v8BHQsME5tlruWTMRzET4k0m39+cgI9vO0jaeXKoq1Sxbv9k3x53uyCjrWhULOc0O3Q3xvyY9vgMTSqcH+W7Cyp4HbpICwPwbWV+QogqJEv50J591E1KwmVtLCONfsexSJ9faJXnXjgEOOG605sDKCpA23xgz99C1R5TgxDtJqexGZEBReelkUVNnR0nJ4Y5PXgT4TDjl+9ZGmeKa3W3ahSotLvpvKGIClDENBTikaWsx/m1eaST4dqCKC5sdb6Jz0Z+42YQXcZsmWW5hcf42YDmW4IM2N+znc/27NkO4UYt10HWo0dq6SjfxeoV0Yac/e2FPAk+C7iMHRgSLNcc8AYO/ijZpM4aa7xQGlUYPumcIg4liHFXpACckxTm/l374Io2zZqzERJ+Ts/1y8MPPUGzPAWQrVTz5e5PHGAq6TTpoLNB4QuWXbt2QsdBgCD44MzKLPw7jzvUQ0EVlUC1FCB647Uj5bWXj5aP3LoDf5ihwWVdmWNMTh8WRvTKESk0vNjMFMZp1hxvEXfmHxyR4c4XXpkvj/3wRYCL7G6J9k+Xz332HsDMKh9WDCoDM5mZ9cioU/+lyBMSFmBIo2Xz5dJdypF+b6eN/KZy7qZi68TFWa6JzpLRrY19A0BZo1wbtOTwjP8dO9Qf2mTYYCIcWU5UKzESqovoldZwLvJMWMZskwDMuc6a532u5WjzJEDTGCGaY/37F4CVCL6Vi3G/nQk0Tl8NBThNm0vLLAPWoyeXyncYtiw9rHPgPG2ay2uu28O4MkAI8KTKZteOHVBBgCFjJW3KtRNuTEBo9rZdWsWpD5PMg+8uAahHny3X7r+n7GBT9bRCd2TKsWo5prIktYb82rJlE9zP9NFMhomd+ycyCPDm6fLID+jJw827mLFNTyyUz9x/D5PHChbxrJpM5WqRlj2oktqoh9RMEGLkvfyqYXQ8uXRngxdrXULnOJ2wncjl6SwdnQUycp0Pz/m7Ac234dbImjhGbr3ctMnMIYccK8a6RjYfejcJDQo4X7KTA9vUIlfGmWsKIDglMlauVkv7iNFELqHHOYrEXNSfTSOPkA81IbtiPzVcGUklONMW7BQph7556BQ+t5QlQLnU3QR+t7BwwWlCcpzdMWwKmgECx5kdm7YpTxtG6JN5k2iFF8UWgeDIinsSdcany8svHC9HD2laxjg9KGRMhvChzUIEvHLcHs36dgxE2liqK5/n8jPkKd88/8oxJlDuLAu9TaU7xjpN3Rmsn5Adeb3CTg5OK+71mBJMOUzPCA7CJw7VW9Uy/5KzPz60lEmkohDZyso1VCCi4alH/Y3L+LFKeJzbbSAoM/phNIIlwQYDoFfqwlByJwj3HBT7fj2ANLYKykxoAjRBKoeM8AMI9sw9BIWKbJNu3Oom/RZQMkd6H6DUaFa1tKVqZ6NPky4AFxkWtCn3WKQTdeqMBcs9X6eCG+U2DGIXVuGxliSFH3N9SKsxqDcNfk1vh351dH5Ct7rcwRbyBGCiWkWc5E/UFKoMYAxsUmlsEp0w5tf27EwHqtXyyuuH6aTxzHlJgNRRqoNvEZ6DBqQ9tROsqQTX3IJ2QJqyipBPUWzmwzpcfK74ZEuYGgjlX8n0abiIhyubMF/EEW/O+tkgUBpujXU0DgFD7UR/tzOMYJNInykQyy2rkDz61UVdR7QW+cghlwJoYJ+kO7Y9BXjgIoVVzDh6zMfOrUP4TH80ldobjjnBjOkJiqVdwLiEqdpyl28B4FGmCIfIAUccn1DO7JczGEEs8a64GILsH7DJncIOE7mvHwc9YgpCntxHZxqQUiUFF16mB6/Ce4we9nMvvMZsSrQHyJqOMvWURzmy8kIb3G733h08MyyiYlbmCiNCZ7CljXTKWWk2nXFpm/H6wSOc6YRhrMGuRuQD2gHo3kpnR6W/3HvdeT8oqEYUCmIZPdrJyh+A0jKO4onfeiMgLat8FxiNu+HPBsiUGe0gyHobZwnIPRw1Si00O7QjUXC5bqOgWb9L6BtOSEgRZvJpAEmBaMDb7c/YKkf2IFJFtiTH9LMceWnR4+5MzzjyR+HaIVO9g1/S8sZrJ5iysJ2xZaenEiq5fugICnRa+OkJNm5HbuvbmSHsvXuvgoYfBTVyrSVmS07yTrVJGEvYUwZ8Im6cRRS0aHqVZW1OzWLZw1yiLs0vbyKsFs27lUJjiy20iUF7d3v03l1qxv0RF1lAwanDLrTlynNj1KoXXz4MCO9gqqvTLOT4REdpT80gExdWoBLwpFu5dX3O7zMM88VOn7KvZn9vHzIZdZ7C3wBQmqRzRW+MCRffXsdIyCPfPoYaBfkGdHjIWYY9N8O5FJcFZjMoJNNUTI7BQgATmxnOWynff+wkFLLaGYXjXJc2XdFZetMMSCaF+HXtyq2Ykj359Bvl8HEKkc5Id5kdttpby5lZdJp9hh1pDmGEkVx34DrFNJTvPXqybGFpFi3aV+S6cOJZdr9ot/cAkjkML1wcgZzALtMlV7SGf/3NU/jbTtOs8Qa9edjWAjMq//t/f6bccMN+CpasYVWMIxiA9PubownftnVv+cEPT7LAgL16pE4WxGKknDn1VPQwOObOSgGNK2oLZsfKN751COsgR36gmXfwZDgrNgKdzVjPO1iA2iawobytp4t3lm20IJSn84Wc/3Sd00h4HqgQBnFhVENMDB6eI0o6qLY763M1gFWsOBJpIdlkManp9VL+5b/4MhzmmjLL5KsWw2AtdG9LaIGVRd6OyLenzhQji5kMLh1V8NLetPo+FwpeWXaNHWsxk7cY7YFJAMwZRl7YEGDr7gCbc3MU/sdZgmWMNX8MpIes58ZHk+xa5NRdV0qzMpleZcgFuOYMq2n1GQtXce6iAksY3HZYFGF+nkImD9yncmGB9YFosmMdIIyObUqVRZ3Ypi4TcZEOD95t7ulVW3yu36mh8hLj765Mt0wvfStc1LWOnBLRUa8qd6SSu0ArlmryKVRCqIxo/pdQou/e2SmnTx4mYLuAUM2IlWEuLpGmNnPVkUGXNcaNTuClgZLA+aMWUdmhlqtD5Z//81+lw2ip+HboEpTGo8zvNyQ6MnO1xw3hlIOIvTCSVU5uOcbsO/WVM+U0uwg45m3GOfZqnbAFGYSx6tt3vsnozHKvUny3WQz9IjrCeVZkG4sVx3hGG9bXKtsRFewoHSnxO3WlMa3VwqRNtGkNMzgKGPSg5AaQbCmsElrAR0wQrXHt/ALDg/TENci1w6RxxDK2jeMApsPozNLSGZb4Q01EjXUR1TB5AyQuNqDKyum644BqkuFAhw2XQNckdKmh0mhk2nWMHIVhdGkRWaFnsw+weyj05/G7ggLfqRXUiaiYsVwNuTvW2lTOnKGarWxnTF4RBvAJBipTG7pM9zKT1ZaoWJ26QPk7Z/d5fNilVasxG2XMEkcBSKJLR+FaxuabblVZe7PqQfNt+Nyon0EEg4sIWX3bfffdRaafoLDynaMNGk6cRdVF0aIIwOH4Hbkg4FSXeG9BqheUK1qQcglHZcaQ09woycVE58Lki8K1+afmdiaw6qbJXmHfQZfTW1ElQ5fa3npM1SU8w/TaZ+Mu+kqYrDzJmWVhJpk5KOfCRG0JENlSgGnAy9KBXeVKlO3IkfbEBfgEwperEM9jB6n+sIOsKucbw08HPaZrEhlW6DdR2gt2TfLsxCzRW/desUKzO1fXyFEkYuVauXh6007Cdl0ix97h0DwLudQ8ohJNY5w8hMtFZfwqz6rgCi3MPffeFs+VzuANa5wPBHAea14ObuWwG++CmCTAwOOWArj743vJaEYsqKn5FCZO87UeZ/Ji7FtgEpHCtj0anzmyoP5wGflwieYZJQzylqoYGCB5KDfUmsbvXBIlldpycejioQp/VTyLjHsvIy+1kAWEmR3ucRd75RsXEFikN2QnRy63zCHXncJ8zrQ5ijVBpWgxrChAnZrhss8aD9tS+H4SLux5HI4nJ1vE7EzZ27FthzPbgHCCpla60cOTFtfsge/BcR0eRS4AEGoErJak3eYYUWIRTqht5eQUFkPIB9mpUWTgO8UNmlu5MCx7PUVAuFYCdzJeLh/92DWB8ShzQx1cjEZhDp/zRXhaHyJG4znntVFn5KoHWFUP06vt9DRpIlGix4piZHD6udSMAZZRuAJJFYqZb+nYkVEHSejEbYfKwjCXXE5ZC3InXLmy8CTa3pjpiFhhB4cS5o9CB4gCrcPQXkwsg0MuSy9h58pofgtQAfg4FS0Mx4nbFCuiCFgLK0z0ABBBEqY08b3Nt7IeYc1h1+kyenbWIA4A5RCk5m6mybXQbf/shTvbMgxFTBSGIUuO7HBprCsOf3IVincequrUAH0FMzuwjLNLDCglkHhiNE1qebYeF8OYLLy1Z+9mRu+ifiTOSVtGNgzdUq6YGD5dfWUpbaAzyvM7y+XW26+jxlNDKbQslMyu83/1Tm9MoiXPQfPUQn5kAiuZLpey00Mhy01wxqnM6DsXyJcLddjCzTk3S8xz0cpF8zDnh7u0iyuiaUEuhcuAAi+gD1MwmsbAjyyT8F1I0pmIdpTaiCaC2SkOcmpbBS2EHFHSBtIjOLgdQeRPVwzWLC6mLxB7zqpULBAo+mXEiUvn6rhqW9/ml2ZbIIwBSneYWCR8F2+BWGjjsHVw1QyU9yvMJ3fqhEsRTiBqOKJWtHgnHFVi6wWklSXLcaXcfOu1pI/odGRLMIe88zYOIZmunpvbkdMGg9KI/asEGHzWCys2KrRy/fX7yTs5QHIFp5omodZx+ZPn+j0XJiJ6aaQWTmAm5Nvqi6/MCZ/zSIyYSapZPGuRrm7RwnZVM++dxyN3ddF+n9ux8Fk2a9LLO9ieoynGX+f/eG1G18y2+U8/yqOKC9KmaEDnBzBqZGvzmWqvpFf51+9jKRjiUa+4AoA95IrmR86ZBsAkNzplADAaeipXpJU4rGBBL54mkUOlPztwtEKA3cyw117TJV1qJMLYmLQbTtq2rs3v+LTJT/PUNOWRKYB+0+DBnxoG5zQ5pHrD9QdCi+BjP3EkqTpDkKY88i4eneOHqrIBzrh0xJWk+sAmMB7xm3Kad9e4zvhW1po50y2sR4/MlkrtSGCkxG/Vm/HEWhhAlOv5BzeAc9gwZ6aYGcZCIUQGWBjKk5UgC09ul8l06WMBsoKMaO+8Zk1MaiPUnIprYRFN1HjCoaOjaqlPG80bwjcVGX6YpRFOVIR4CweDdMEYa1niL+PGv/8chhAzJgnT1k3DC+XI9OB7KpIExCdA0XRxH0u/EEBfDsl9m3h7YTpHTxzmb7onIg+MhPzCL0yY8EwIld1hKvI15gORt0EMT4IJRLJ8Zn77TR5Bg3RKKJ/HGD8cV9O8GP4kvsgTWomd26fKzddpolg/jsAjHT60I6RiKgLSD0GmZ29WOyndYFdhmTAzbtcvjM2WuHag/qc+/ROoIlg3PGpYzYKgHFr54zK/TtL00TzMxJgaA/YnaiyXNodxAMx6nZ70uNoN/OmXQo7MigDxJ+TyyAxM8MrDzVSP6iNLUN9+5a/ZyTlKVnqGYaaP9Bl+8JkfmoahX8Opvmr69BquSZfNf9JAaxByZI096VMRUUPJ1kdgSleKAwIk02yoxrbaOdIT+T14J2dVRlUO5uuG04bkraqJTQc+ff9Hwt6TorYOZbBcpzMfaj7xqmZLvFx1E0/WD8qML+NeVbjNI04OkeWiS0nr3ffsZU1HVCNwvWWV2QEeA7JqJ7fTZ+aNIBU8sAMLRWdzrjwU57MzNfxc/rmIHKiFWAEiLJoKJpjIbrmkLYN5PsaoVH8FEQiZuk3Z7Nk7Vu77lDazFBHyuLtq2HoNMBngHgmzgjZ86KvGyyVu/aDMcEZ+rRH558OATMSZUZkutwn56EevR8bBhD90ln6DpwCdTXMlM77muWCtgCXQkDFtkpv3RnTZXWIOZN4PGYN5mgBqSqUpF7gwMjrYBKHIy04Nhkujjygf++i1jIwZPR07uXEDtkGnJ4ppBJR6DScwVgPSx+sHpRE22Fjb5MbjJl7k4IjfnqSizx13XMV2IAjjGEGkrCE5ArMSWQP2mUNpypKIAREZgYQs2UTsp5fdJeXAMAczZw1kANNgfSn3qlWw+aY/B+/ArgC51TH4aVRBH4PBaPhc5yxFOQY1ll3eWao13HjFXbohBc2DDQBlDSnOGUHKM8MXkRBbXHqF9gytCQeunii333o1OrrD0I2iuBIZbLLWKhICSAVjcFEBG6A1Hv2Y4rMTxYvL7iJyILPVfBwFUeWdyJOMjC2jK1ULMYEGw50xFudPwyXn6XHvKVfuR6tBGbntSopUalTUBdu6JSEJylGiLDvK8BzMxZLdGBeRC8cEi7cNPUPBF9buKIjPZxiV+8lP3c7mSPpTBrGm+b0yiwhO9RAXjavJyrNZFgI5X6ytBPWLy+cLyQFLo6ng4V0GEPBMMap5rV5UlZKaAY1L3Epw586x8ulPfwSTPvWoiFMM46orDp0xZRjrIFFO2YJabk24gwsjaiKLt/mzMaCU8HCZgsFtfSzGZJfE5kiGkXp76y2l3HXXAWQVRjTsEQpKEwYwswZVIBqQodaQh8JxAtP3l92l5QB5GtyqQqHJ82iReEWgDjhoP6o+17WKllHIb97cYo7SlnLHnalu02OopmoRWdzqg23lVsHynamslLyzzwvyMQqcoKX5CjbOqIfcUP2Y6VUb5LDcFz7/EVYrQ9fGOt4dFbrUsC5De3I/9X0qhAPNwT2bFNshik6Rwddc8Pqyu+gcEHWwhFQt1a8FUoLJ/LX1ctFYh007mL+55Uq7M19+4fMfQ7OCD4ogeE6Dz/i0QdaltGIbAEpTZQckUldTtfocuMlEqkAOr5ydYGSv7dZbrkCpy2buKrV57bqKCs6aVVlDA5Rk3NBK2vgM77Jbfw6IKGFgzguhLM+s9Fmm7vCr8r0OJy7DQD71k3eXnSz+JqsJsb4G4SfN9cK8U4FruHnFg3d0GwDKxFiNKYRmbiQlXFxk4uIpSi+BmaQmMH/xF29hVQcNFRjiYVrBCmb90+wxrKW4xrWZ6vzCkOz8ZKbV2tzEdfl0aTlA1tozTrc6b4XpPHOHNItzyNLlZyaxv/zs5/Yll+SjBZp3x9tXHOOPGaBscIVV/RSTs7SISm6Z4Wcp8lFcGJdHE3Vz2hBQ1iDXhF0fR93L6kPzHGPSZELQojqIjYqY+vnrv/4LCMZzgJEXmGIvNcvZKYMOXU1SE1MkCP+X3QbngEDKw8LbvGkzi8Wy2hwtly2iaxT9p//8bHnlFQxV4AsdxtgVuLQ07jItxJmhmsrpsuPbYDCe1B8BwMchhq0uww2YDlF7V9aHc8My9YuSLaH4goZoxmMEB/N8TMh0/+E/PFO+890XGWvdGtNZp7fMYBxLJ0ihxbDXypWDJvzc8Uagl3/eIQfMV1kDIHSAQhSS1w5P5pn1iFDtyCVlKG6eurRwHNFrCQOb+fJTP3VX+dmfuT62j1Zfgjkzpey3lHWsvxnB8KOr4KvlFY0/zxMX4YUfv16nM4IaydqgJMIDeYRhQWXCACPeU0DOsVTn0aj9/8xnboVTYkGESdY0y/HNnjkTaoVhU234TYIDoN5fbsLNhXW5AceiYEJFk4zDopOBaFqn+Z9WSafPMB8Jo+TuyjSi1Zby1T97vPzxl59jlWNLQhxozKzBhlyQ2wqBKKe1ZaUHj9VuA0BpgDVwKagR1+thhMHwuNXuMMa5fYW3nGmIkSiC86//+t/gIfaBWkyTGWnxYwI9DJO4ApDWLj/22WV36Tlg/jVlFlkpA8k2r8JFK3j1lFoG5Z49LP4/uZtJacr9B8pD33qpfOW/JjDdGNYpzW1sN9N6ScpqHCPxNHElk6kxZSo2CJQZWEZer4dnx7uDLghJYAZF6SEurWNLsWjBnXeqkL2Laxp91wLXGiC6d5XwFBfiF0D6tzreej88j/oaPh2QNCT0r+xV5opS5GqXz1XNqQh3JTiHGjXxc9e1rdv2wi1ttLeWBx98ujzwgKIXZUyzp2W/+vR0NVyB4DHq6rvhsw0BpcFm0PWqng3eEYAEo4DMN1IL2LwJCmjG4xKbQNREn/3sFezE5UaaJIwM6DhfGqsU62/snYj1tnNL0mC2qqPMwCbRYVXkEJdj5sgtg+YJL42L7CbSaK3qw7+yZwvBQsr8qNAZ8ALmPMXaRcDPmZ9uAOASMIsrrISA7YLd1T5rGD388KvlyR/RGzfrAfKyslqUrxnrRS0j78/PFAafpLf1/gotj+pGr+szz0Zb30FoCNo2x05HSCui3/7te1gUi82OVljDh6mAU85I5BtF8JUuK9S6mhgz/VxhYhjeaPz1ujmP6OKGcfPpZXd2DtSsizdRfSPfBz1yK39U9DS4dglvF1mYm++Uf//FP2PCWgpnzjty1mcGc+FQu3CfZ5O+QU/IAZroLnOeY79DQnWy03YmIP3mb/9c2bKNXp4bvKPvWmGSzKYZFv6EUy4szAFUVo9g/rZzbtKcrV4TQDxjdiCZFb1A5dABMBOWY3CAODYoJX8lg6Fo5l3GmpEQLdRPnZwr33rgeVq2zA2t1IfOaxH/9m70i7f3+W6+pTI5S09yY74wZy3w70C+/MVfvAeV0Ak4JqtcYAgwd+Y0zTqLBTCXJVRMI0BroJbgCxAKRJt9hfdGgKdNsm9kXPV4N5P2VyFsAakMqay5adOO8uTjL8YQsml3DtTQmePvDLl39jEM8V27iimohB4dIs6SPgnz8/4nf3JH+dnP3crowEmMOZyVh6ANd2RBllhypM2cEacHhMW6TUrILZxGIVeBOApGrpVXLxt0mFfrc2QjDbqre7D4P2tlu37TWwcBpMzmg8optddzSRQ7QnTwAk7aXU5gxMEruOX15a/9tVt4pzKMrYPxqyl+rC3uQjyMwMZkMrMGYMbBk0HPPOQfEcnB03RCXxmVc33UvLl8uvAcMOuWMNRwrrp7Yrpe0skT3fLC82ycBShXZ23m+TuF/j7glJIN9a7Z2FDDXCQMRp2Ez0iCoz70tD//hZvKxz5+BT2/U3BMluJznxhbZ0AZK0JohTTgmFy7S0RjsV7P9sTpPzZ5oiJfdYaRmlmX3aXmwASjHy5U1kavrI5yor29vPjiIZgGA45YeclJ060GZd6thq3+3geglAw0ZE7Bs17xHzNiObvok7CZRDUkEP/e37unfO7nPkqNPE3P+wjc0iFIv4sQ/JTDPqJn/tRjVs4pIBuOWf1ZCy6D0txbn5NTOgzp2kl0U5EjJ8pbbIqKvh3GATKrE51DhNanZ53fB6AcQATiuB7UqrxVn+kQpb1kxv3hmAfK/T91Lb294wCSvWfoEblVR9vFRZnQ5GL0fuOKZTYpzsAbAHPQvDeAjchGIzwrfz5wDxwBG5337pTYd9s5/Oi0Wyu5c9rd+eLokRPBKaHm3NG/DVnvA1BWmqVyDaWBV0ikmXVkZ25uLoD5K798Q/nVX7mfvRCVYVwKFP6Inw5LqjiPRNu/Nks+u2KZK0FEMEYj5/RvwF2jGlQCPhRnQTgKxFGAvlsJdGGHXIYnz8ZT4w2Z3QdritZH58v99wEohZTN6Ago62UDnuCWsP0tM6xeRlKYKs7k970A89PoKucA7HJZmJ0DiFixsHzeODW1zdJ/sRvFYH54E0dkToIzFMAB0sihyz/ryAFBmBVCjsn6SFPZbJvT5wPf+aJ7H4BS0kRKQ8oqQJogktT0TVxjR+ekM9cluuP2Vvln/+xvlJtu2FU2T7PG5NJJevEs6IQFex/BOzWU/MJF8yDwRqapkmcFZgT8IfypHOvdTJqaEzUhak5yD/JFjGtiIrhVnqjrcWFUvA9AWQHpeY2LwXJqYK5DQmeH2icum8PbvXtL+fu/cWe5996r2QLuDLrHY/T+WEscS6M2nFaZM3YIU4kehwA1rppRyaPXxPyhuR1tyt+tRAl8OzS5YC27YfTnyjXX7G1YjXktV6lajyEVtQSGT/LqfQDKIUkSOQRLfU6iAKcJl2Oqi/UQkO70pR5zN7sJ/92/c035W3/rU1wDwrFTAJPF8VwOjxlNZkvMlJRjDv7kzwLyfFlT4/9gn/9HgDLXAEWehGO68OwECxRcd/0VFhv563FuUJ4vZ99XoLQ2pRJcfaJgIUmJ1JRXoNYdCGKf62CXJBbz+3GMgl2t9/77t5d/9I//OqtvsFsr29R12mxoxMoOLdDszq1DcBIy3DJE1ib882XQB+H5KPBqc+2zulTgu52G6H2rU0amV0W3Y+emcuAAMv35nAURLiFb7+p5YPFWH7wfz3LIVKwDLASXTBPwVT/GXF2Wsy/TzZyQq64s5Xd+5242eF8uf/AHX2NrDnSZbXaIje33XCgU3mgVDgciuTw3LodPq+9VedPIpsNnQ/8NgcNX9WrES0Rcnw86dD5Y5Sl8ZHXyUkpGqfFa//jgknoXoHCBKRcPywVayR8ZFQYqfY1TkLQlfRhLXo2GiqcRD2vejNTkyjhiWjRrck5RFi7B45TpXbRe+aWRr3FGGS8rFavj2IA5OmsiXNdtJbIGsprYfLrWj1mT2ZNvcrakfg8dKuVb33yhfJ+NPmdnUe6uUHu1zSRHQi2ErJojDmg3GSLLBUrdzF5jD20Hs/a7wGqUOE8VACx8LWKkzkWf4iKKudJWz0nx8LemxzOH3ppL2XbsV5kIisrnyyxSbVJVSrvmJFwfNZfrXkqHArZ7NXaQY8YBHium8+0JFgvossvuLeWnP3NL+cqfPo/lzuNYW+3FL3uHGwcy0CKdQWeNuppwBqYeRLqkRaC78GuHSWNsGoU/o7NFskVzaDjlRGwRVtR28LZ/Em3IqfIPfuvny513sI8kXsYdWZNQDWQIPZxRRPKz41qNZfIlqSbySFp98EE81wS4+KkgUWEe+9PwAtUmW9gVNk56qjz+xCsU6gRZSsEwdu7uED1YzDhDlnPMUXZRfi2rFzHFItvivkuBxcJOKuGbgkq5lMwjLpvJalDiN3mYi5Uqr3WiT+d59FqAUziEY1g5DJp2APo2zhXTg57W+Fzk37ODA+6Oqxmfk7U6nJfmWbmCmaGfvO/Gcv+nb4ltYuwRv/xCKf/m9/5bOX6MisdmUX30uV1A5L4/yyz6P0GYGqdIc1Y6QZlxS6tz753J6GIEbTYOd5rtshsbMGTTcXcMhhbZnAWfR8o9n7im/OZvfCRlfsLL7amraSFxGA3Hhx6UJDMykTIdODmKC9ZXmFh0zz63UL7+9cfK8xgLLC9tQtHO5kbOpGQIMzIKz7HsMlkcnJASdVRo2b1L8OYGUsaR8VhwWmRTkGH3b+RrgTggZ82FfhtH6TgKItCMRBDmAvnBz3nkHj9yHBfiZz1PgJGVgYd8Ow64WoBy+/Z2uemmXeUTn7ip3HKLy0rzmmTZKfT8J3/8UvnLv3iW9LKVH/tN9jHAbc8wbZaNqVo068A94peqpMWrrDDOzYmtVRy50RgmACutTo8gfCzQZ6a7Zd++ifI//9P7Y4DD9YXGaGla2DSEHSudzFFOGfk9aAfMj2GefCg4JamORJn5ugpOuY5GGCtwULf/cJcvFwJ7660Sk51++INX4AAUKbtuTbAqhzPwXCXGncW0cHEzJUHqLhbBxci32L6PXr8r2xpvgohrq/7AjV4PHnIxClquI4gUB7zpu4Ei51yvvRahI1RUCg1PONqxOYDhCNYxwNAp9959Z7nl5t3l2uvR4bI5a1QcY8Ob6QVL7IBWypf+6LnynUdeIQ07c0NUNqvvGqa2qVQM4R2LB1BBTHfQi1gRnJy3sc46/josTOComeIE9v/QewwOvVT+wW//crnpxjTSTgi6mBlERN5YS3has4azqfC39hLilp8PASituchRwWlojuF8muEPXCSeksFFppON6uAtqBNYwj3yyFvloYeeLCfZZF4DgrHYkcxCYXF7RofcskTL+D7hyyld0dZCcjw9Ol0gIOelG4Px1tweocFXFkE8siisPVkkypKCK5fgpnjCKFljUjx7EKd9OCfWtVoAYJyt8spJergT5d5PfgSNww1lC0BMEDTB1qDFlc6gOLnB1L//4mPlke+9jnw9w8ZO7CFDupZYzYJEBDDdFiWmQvtRVDzUbtAnx3WzALfNU5RoK0YQa6ucYY/zE+U3/u7ny223MrvRrjOf/v/dnctuHUUQhtsJRg6GkNiAZAOSEVcpGyBbeAIU8YTwFOyygSVI2USKoigQsSEO2ArgYEwi2+L7qrrm9DlxhFjmtDSnb9XV1d3/VF/OzNQJnw70g7i5Ku7ShbYkU4fXxTQ455YClH6RwSlPQOWCmjbSYm3k+BCwI3bEeutF/gZyqtUwkh+4tzNYrvFZEqb2uyft9u0fsbu93/ax7X3wSGOdmBLhlYt4+IWPhGopTK3pjS9AY5qFd1pj6P0aWsFBOMsJcIeig7KHgw/8YpDVUgoMiWD3LFY7OOvr5ziDXcOg6BvtypW3Md+MxVsNqVkNtN6HtmcaacNmeIRG4grrSB4LwEZ5a9ev323f//ATa2csmmGJTPMoITZg803EuHnpI08pvNk95fAlPW0NaYOShSIzCicefL7ltY0X2pfXrrKxwXqu1ZPtDS8YT9Hwasr4TGDkKm1IrHCTqCF3pOTPEoAyG+Ki2/OybOBCM8VBTxKEfvfG6Y9lPuBys5Jnau43WM+jNVu7efOXduPG7fbrb49YVwLMJ05XTuV+cCufQmLcqJOBC35ViRXR8THKBMtNYFQArhgSfaLQxjrRNEHE95Q067KGBVpfNf78s0/ahx+92d7iuMup2SWGmisH39oAAOuNFWzjgKt0HAlxW2YB31dC5seg8rxGQ2nnnTvH7euvvgFkm0zhGCLl/adjNi+a5NMEtE/9nLqBYWrXduSxmxzauYpB1aOjfcL/oKU/bte+eLdhSTmgFo+qUdUJCkITLlqwKKfORJjhqpyn/aUApWvJuEP7gJwyamHz0TG3H8TLiBkAogm4GDR+sbBD3OOU3BjFZphBZ6Zqe/uNjdGfbW/vgLXo7wD2iC93PGYqdPfJ2hLNGeZE4BOVTZqyBiAy+OlADEASLp+aV+Hh0czFi1rserltXH4Jy2wbbeeddTYPWb7GV67qmmgWbdKXt2veuBHsCNvmEY2NFpvYjAxHQaVgKRjur4PWvv1ut9269TMzw+N26JSBZhTZJywdfAhaIwongHk1Xjt5wtpxhY3Udrv66QdtZ2eVF/myKm+SdPZthdSWbDi9e7qkCU7zU/KknP9dDlBWL/R2PtXcyq+2B4GJTmz6gnHq1aAytYqpXXUaK3PcXJv9fXjKUdND3kc5aLu7D3no+ISz0CMO6w/RJBj/jIdHUhJ3rj6wsMaW9AIGu9fXL7AmfJWHFjbb5UuvxLQMCe8hcaG0/USiGCsxKxzKNkWZG9KQM4gBZ3x9BFUYjsNytWRpbWm4qm3i10tD9nv7xzwtfr/du3e/PXjwB2m83hzLnNO2tb3ZtrYutfff2+Y/7dexmaP1sqxBmbTem3Av8Dlpj65i6f8XMJcDlLS/mh1jQzy7xdQ+EvbRIpFpuErOkLFMyd8qnxwFaEybvZDYU7noYpA7gANIXZhQXuSbFqCgbPBxA0NaDOz8PdHlT55qwWDV67Su0VmluEtAuuM17LThGeJAGUzMLEYz8JjiiUPIaqTTBp7l7UVywo5GMz3HYikaVfysUyovSOJ3/MmUWa1JV/RF+dyD0mZmU6sL3DCMzgGdTxlzDc/KW9ZRjGEmPXmFZbFAnn/ZwY0d8jnnKwvCOqZD/BifGcMEKTSmO9gxsAP4Ig36mJrl5VVOkb0iMeXJLBMTGmYJmlkuT+IT80l9jYOKvQF/vbjUwRjfCns7esx1crgi6dFJfvJzKSFh18hBKx8DXAtlO4vitOAb7eV6TlfCPfbcenbQeNkQ49XY0TfvLLcIXgc33fk4s6sIqXZ+VUeyH6afqy8Kdn1AOMEKxB1ZryhsOqA3WnIG8KOwiaCNzECWkSAcfEAw3QWVb1mXImxWBkojwTV+pB1cyJMZsjtPfawEISDSQRY3UxWZeBgQiNDG7or4lFfE3Vf0Kc/AYlumzCjw3GtKW1FNzFCZeKtUG+xFB8Y13wEkjgwiOuvAnsdAxTmix07wyDPRgU8FqbI0ysgjxk2aostazvjtMidShwLPLmiJamlqLmPSO7n2csV2YiPocHFumMEkNb2uzteZQdAV7cRjLDfKYO0ziUKWhWiWNLHLsTAuSwHKqQ+iw6pTF3vCzPHqnTqS9aRnetKK7XL/p2yVwa/TApM8o/SwPzdcMkR7oppiNz3JG8mSp5uAIf0U6ZlyKsFGYceiIxgyPUpxHJXwYts3ae3qs3leISk/cRMOWbYkQVkyUL4A3SWciVxyVB1J8C9eks4vOVo6hwAAAABJRU5ErkJggg==;" vertex="1" parent="1">
          <mxGeometry x="660" y="115" width="110.36" height="105" as="geometry" />
        </mxCell>
        <mxCell id="ALdv9pmXkEG0M57BJ0c6-17" value="&lt;b&gt;&lt;font style=&quot;font-size: 20px;&quot;&gt;You Are Not Alone&lt;/font&gt;&lt;/b&gt;" style="text;html=1;align=center;verticalAlign=middle;resizable=0;points=[];autosize=1;strokeColor=none;fillColor=none;" vertex="1" parent="1">
          <mxGeometry x="770" y="150" width="200" height="40" as="geometry" />
        </mxCell>
        <mxCell id="ALdv9pmXkEG0M57BJ0c6-64" value="" style="rounded=1;whiteSpace=wrap;html=1;dashed=1;strokeColor=#333333;gradientColor=default;fillColor=none;strokeWidth=2;" vertex="1" parent="1">
          <mxGeometry x="-190" y="620" width="290" height="330" as="geometry" />
        </mxCell>
        <mxCell id="ALdv9pmXkEG0M57BJ0c6-69" value="VPC" style="sketch=0;outlineConnect=0;html=1;whiteSpace=wrap;fontSize=12;fontStyle=0;shape=mxgraph.aws4.group;grIcon=mxgraph.aws4.group_vpc;strokeColor=#82b366;fillColor=none;verticalAlign=top;align=left;spacingLeft=30;dashed=0;strokeWidth=2;" vertex="1" parent="1">
          <mxGeometry x="124" y="580" width="1256" height="780" as="geometry" />
        </mxCell>
        <mxCell id="ALdv9pmXkEG0M57BJ0c6-66" value="" style="rounded=1;whiteSpace=wrap;html=1;dashed=1;strokeColor=#333333;gradientColor=default;fillColor=none;strokeWidth=2;" vertex="1" parent="1">
          <mxGeometry x="149" y="620" width="551" height="710" as="geometry" />
        </mxCell>
        <mxCell id="ALdv9pmXkEG0M57BJ0c6-70" value="Private subnet" style="points=[[0,0],[0.25,0],[0.5,0],[0.75,0],[1,0],[1,0.25],[1,0.5],[1,0.75],[1,1],[0.75,1],[0.5,1],[0.25,1],[0,1],[0,0.75],[0,0.5],[0,0.25]];outlineConnect=0;gradientColor=none;html=1;whiteSpace=wrap;fontSize=12;fontStyle=0;container=1;pointerEvents=0;collapsible=0;recursiveResize=0;shape=mxgraph.aws4.group;grIcon=mxgraph.aws4.group_security_group;grStroke=0;strokeColor=#00A4A6;fillColor=#E6F6F7;verticalAlign=top;align=left;spacingLeft=30;fontColor=#147EBA;dashed=0;" vertex="1" parent="1">
          <mxGeometry x="180" y="680" width="270" height="618.46" as="geometry" />
        </mxCell>
        <mxCell id="ALdv9pmXkEG0M57BJ0c6-73" value="Auto Scaling group" style="points=[[0,0],[0.25,0],[0.5,0],[0.75,0],[1,0],[1,0.25],[1,0.5],[1,0.75],[1,1],[0.75,1],[0.5,1],[0.25,1],[0,1],[0,0.75],[0,0.5],[0,0.25]];outlineConnect=0;gradientColor=none;html=1;whiteSpace=wrap;fontSize=12;fontStyle=0;container=1;pointerEvents=0;collapsible=0;recursiveResize=0;shape=mxgraph.aws4.groupCenter;grIcon=mxgraph.aws4.group_auto_scaling_group;grStroke=1;strokeColor=#D86613;fillColor=none;verticalAlign=top;align=center;fontColor=#D86613;dashed=1;spacingTop=25;strokeWidth=2;" vertex="1" parent="ALdv9pmXkEG0M57BJ0c6-70">
          <mxGeometry x="27.34" y="188.46" width="215.32" height="411.54" as="geometry" />
        </mxCell>
        <mxCell id="ALdv9pmXkEG0M57BJ0c6-104" value="" style="sketch=0;outlineConnect=0;fontColor=#232F3E;gradientColor=none;fillColor=#8C4FFF;strokeColor=none;dashed=0;verticalLabelPosition=bottom;verticalAlign=top;align=center;html=1;fontSize=12;fontStyle=0;aspect=fixed;pointerEvents=1;shape=mxgraph.aws4.route_table;" vertex="1" parent="ALdv9pmXkEG0M57BJ0c6-70">
          <mxGeometry x="185" y="105" width="60" height="58.46" as="geometry" />
        </mxCell>
        <mxCell id="ALdv9pmXkEG0M57BJ0c6-106" value="Route Table" style="text;html=1;align=center;verticalAlign=middle;resizable=0;points=[];autosize=1;strokeColor=none;fillColor=none;" vertex="1" parent="ALdv9pmXkEG0M57BJ0c6-70">
          <mxGeometry x="170" y="160.46000000000004" width="90" height="30" as="geometry" />
        </mxCell>
        <mxCell id="ALdv9pmXkEG0M57BJ0c6-59" value="" style="rounded=1;whiteSpace=wrap;html=1;dashed=1;strokeColor=#232e3e;gradientColor=default;fillColor=none;strokeWidth=2;" vertex="1" parent="1">
          <mxGeometry x="1130" y="360" width="179" height="160" as="geometry" />
        </mxCell>
        <mxCell id="ALdv9pmXkEG0M57BJ0c6-19" value="" style="sketch=0;points=[[0,0,0],[0.25,0,0],[0.5,0,0],[0.75,0,0],[1,0,0],[0,1,0],[0.25,1,0],[0.5,1,0],[0.75,1,0],[1,1,0],[0,0.25,0],[0,0.5,0],[0,0.75,0],[1,0.25,0],[1,0.5,0],[1,0.75,0]];outlineConnect=0;fontColor=#232F3E;fillColor=#DD344C;strokeColor=#ffffff;dashed=0;verticalLabelPosition=bottom;verticalAlign=top;align=center;html=1;fontSize=12;fontStyle=0;aspect=fixed;shape=mxgraph.aws4.resourceIcon;resIcon=mxgraph.aws4.amplify;" vertex="1" parent="1">
          <mxGeometry y="729.23" width="60" height="60" as="geometry" />
        </mxCell>
        <mxCell id="ALdv9pmXkEG0M57BJ0c6-20" value="AWS Amplify" style="text;html=1;align=center;verticalAlign=middle;resizable=0;points=[];autosize=1;strokeColor=none;fillColor=none;" vertex="1" parent="1">
          <mxGeometry x="-15" y="799.23" width="90" height="30" as="geometry" />
        </mxCell>
        <mxCell id="ALdv9pmXkEG0M57BJ0c6-21" value="" style="rounded=1;whiteSpace=wrap;html=1;dashed=1;strokeColor=#8c50ff;gradientColor=default;fillColor=none;strokeWidth=2;" vertex="1" parent="1">
          <mxGeometry x="-150" y="360" width="258" height="160" as="geometry" />
        </mxCell>
        <mxCell id="ALdv9pmXkEG0M57BJ0c6-22" value="" style="sketch=0;points=[[0,0,0],[0.25,0,0],[0.5,0,0],[0.75,0,0],[1,0,0],[0,1,0],[0.25,1,0],[0.5,1,0],[0.75,1,0],[1,1,0],[0,0.25,0],[0,0.5,0],[0,0.75,0],[1,0.25,0],[1,0.5,0],[1,0.75,0]];outlineConnect=0;fontColor=#232F3E;fillColor=#8C4FFF;strokeColor=#ffffff;dashed=0;verticalLabelPosition=bottom;verticalAlign=top;align=center;html=1;fontSize=12;fontStyle=0;aspect=fixed;shape=mxgraph.aws4.resourceIcon;resIcon=mxgraph.aws4.networking_and_content_delivery;" vertex="1" parent="1">
          <mxGeometry x="-52" y="330" width="60" height="60" as="geometry" />
        </mxCell>
        <mxCell id="ALdv9pmXkEG0M57BJ0c6-23" value="AWS Networking &amp;amp; Content Delivery" style="text;html=1;align=center;verticalAlign=middle;resizable=0;points=[];autosize=1;strokeColor=none;fillColor=none;" vertex="1" parent="1">
          <mxGeometry x="-131" y="390" width="220" height="30" as="geometry" />
        </mxCell>
        <mxCell id="ALdv9pmXkEG0M57BJ0c6-24" value="" style="sketch=0;points=[[0,0,0],[0.25,0,0],[0.5,0,0],[0.75,0,0],[1,0,0],[0,1,0],[0.25,1,0],[0.5,1,0],[0.75,1,0],[1,1,0],[0,0.25,0],[0,0.5,0],[0,0.75,0],[1,0.25,0],[1,0.5,0],[1,0.75,0]];outlineConnect=0;fontColor=#232F3E;fillColor=#8C4FFF;strokeColor=#ffffff;dashed=0;verticalLabelPosition=bottom;verticalAlign=top;align=center;html=1;fontSize=12;fontStyle=0;aspect=fixed;shape=mxgraph.aws4.resourceIcon;resIcon=mxgraph.aws4.route_53;" vertex="1" parent="1">
          <mxGeometry x="-132" y="418" width="60" height="60" as="geometry" />
        </mxCell>
        <mxCell id="ALdv9pmXkEG0M57BJ0c6-26" value="" style="sketch=0;points=[[0,0,0],[0.25,0,0],[0.5,0,0],[0.75,0,0],[1,0,0],[0,1,0],[0.25,1,0],[0.5,1,0],[0.75,1,0],[1,1,0],[0,0.25,0],[0,0.5,0],[0,0.75,0],[1,0.25,0],[1,0.5,0],[1,0.75,0]];outlineConnect=0;fontColor=#232F3E;fillColor=#8C4FFF;strokeColor=#ffffff;dashed=0;verticalLabelPosition=bottom;verticalAlign=top;align=center;html=1;fontSize=12;fontStyle=0;aspect=fixed;shape=mxgraph.aws4.resourceIcon;resIcon=mxgraph.aws4.cloudfront;" vertex="1" parent="1">
          <mxGeometry x="-52" y="418" width="60" height="60" as="geometry" />
        </mxCell>
        <mxCell id="ALdv9pmXkEG0M57BJ0c6-27" value="" style="sketch=0;points=[[0,0,0],[0.25,0,0],[0.5,0,0],[0.75,0,0],[1,0,0],[0,1,0],[0.25,1,0],[0.5,1,0],[0.75,1,0],[1,1,0],[0,0.25,0],[0,0.5,0],[0,0.75,0],[1,0.25,0],[1,0.5,0],[1,0.75,0]];outlineConnect=0;fontColor=#232F3E;fillColor=#8C4FFF;strokeColor=#ffffff;dashed=0;verticalLabelPosition=bottom;verticalAlign=top;align=center;html=1;fontSize=12;fontStyle=0;aspect=fixed;shape=mxgraph.aws4.resourceIcon;resIcon=mxgraph.aws4.vpc;" vertex="1" parent="1">
          <mxGeometry x="28" y="418" width="60" height="60" as="geometry" />
        </mxCell>
        <mxCell id="ALdv9pmXkEG0M57BJ0c6-28" value="Route53" style="text;html=1;align=center;verticalAlign=middle;resizable=0;points=[];autosize=1;strokeColor=none;fillColor=none;" vertex="1" parent="1">
          <mxGeometry x="-137" y="483" width="70" height="30" as="geometry" />
        </mxCell>
        <mxCell id="ALdv9pmXkEG0M57BJ0c6-29" value="Cloudfront" style="text;html=1;align=center;verticalAlign=middle;resizable=0;points=[];autosize=1;strokeColor=none;fillColor=none;" vertex="1" parent="1">
          <mxGeometry x="-62" y="483" width="80" height="30" as="geometry" />
        </mxCell>
        <mxCell id="ALdv9pmXkEG0M57BJ0c6-30" value="VPC" style="text;html=1;align=center;verticalAlign=middle;resizable=0;points=[];autosize=1;strokeColor=none;fillColor=none;" vertex="1" parent="1">
          <mxGeometry x="38" y="483" width="50" height="30" as="geometry" />
        </mxCell>
        <mxCell id="ALdv9pmXkEG0M57BJ0c6-32" value="" style="rounded=1;whiteSpace=wrap;html=1;dashed=1;strokeColor=#e7167b;gradientColor=default;fillColor=none;strokeWidth=2;" vertex="1" parent="1">
          <mxGeometry x="770" y="360" width="258" height="160" as="geometry" />
        </mxCell>
        <mxCell id="ALdv9pmXkEG0M57BJ0c6-31" value="" style="sketch=0;points=[[0,0,0],[0.25,0,0],[0.5,0,0],[0.75,0,0],[1,0,0],[0,1,0],[0.25,1,0],[0.5,1,0],[0.75,1,0],[1,1,0],[0,0.25,0],[0,0.5,0],[0,0.75,0],[1,0.25,0],[1,0.5,0],[1,0.75,0]];points=[[0,0,0],[0.25,0,0],[0.5,0,0],[0.75,0,0],[1,0,0],[0,1,0],[0.25,1,0],[0.5,1,0],[0.75,1,0],[1,1,0],[0,0.25,0],[0,0.5,0],[0,0.75,0],[1,0.25,0],[1,0.5,0],[1,0.75,0]];outlineConnect=0;fontColor=#232F3E;fillColor=#E7157B;strokeColor=#ffffff;dashed=0;verticalLabelPosition=bottom;verticalAlign=top;align=center;html=1;fontSize=12;fontStyle=0;aspect=fixed;shape=mxgraph.aws4.resourceIcon;resIcon=mxgraph.aws4.management_and_governance;" vertex="1" parent="1">
          <mxGeometry x="869" y="330" width="60" height="60" as="geometry" />
        </mxCell>
        <mxCell id="ALdv9pmXkEG0M57BJ0c6-33" value="" style="sketch=0;points=[[0,0,0],[0.25,0,0],[0.5,0,0],[0.75,0,0],[1,0,0],[0,1,0],[0.25,1,0],[0.5,1,0],[0.75,1,0],[1,1,0],[0,0.25,0],[0,0.5,0],[0,0.75,0],[1,0.25,0],[1,0.5,0],[1,0.75,0]];points=[[0,0,0],[0.25,0,0],[0.5,0,0],[0.75,0,0],[1,0,0],[0,1,0],[0.25,1,0],[0.5,1,0],[0.75,1,0],[1,1,0],[0,0.25,0],[0,0.5,0],[0,0.75,0],[1,0.25,0],[1,0.5,0],[1,0.75,0]];outlineConnect=0;fontColor=#232F3E;fillColor=#E7157B;strokeColor=#ffffff;dashed=0;verticalLabelPosition=bottom;verticalAlign=top;align=center;html=1;fontSize=12;fontStyle=0;aspect=fixed;shape=mxgraph.aws4.resourceIcon;resIcon=mxgraph.aws4.cloudwatch_2;" vertex="1" parent="1">
          <mxGeometry x="789" y="418" width="60" height="60" as="geometry" />
        </mxCell>
        <mxCell id="ALdv9pmXkEG0M57BJ0c6-34" value="" style="sketch=0;outlineConnect=0;fontColor=#232F3E;gradientColor=none;fillColor=#E7157B;strokeColor=none;dashed=0;verticalLabelPosition=bottom;verticalAlign=top;align=center;html=1;fontSize=12;fontStyle=0;aspect=fixed;pointerEvents=1;shape=mxgraph.aws4.monitoring;" vertex="1" parent="1">
          <mxGeometry x="865.3800000000001" y="420" width="67.24" height="50" as="geometry" />
        </mxCell>
        <mxCell id="ALdv9pmXkEG0M57BJ0c6-35" value="" style="sketch=0;points=[[0,0,0],[0.25,0,0],[0.5,0,0],[0.75,0,0],[1,0,0],[0,1,0],[0.25,1,0],[0.5,1,0],[0.75,1,0],[1,1,0],[0,0.25,0],[0,0.5,0],[0,0.75,0],[1,0.25,0],[1,0.5,0],[1,0.75,0]];points=[[0,0,0],[0.25,0,0],[0.5,0,0],[0.75,0,0],[1,0,0],[0,1,0],[0.25,1,0],[0.5,1,0],[0.75,1,0],[1,1,0],[0,0.25,0],[0,0.5,0],[0,0.75,0],[1,0.25,0],[1,0.5,0],[1,0.75,0]];outlineConnect=0;fontColor=#232F3E;fillColor=#E7157B;strokeColor=#ffffff;dashed=0;verticalLabelPosition=bottom;verticalAlign=top;align=center;html=1;fontSize=12;fontStyle=0;aspect=fixed;shape=mxgraph.aws4.resourceIcon;resIcon=mxgraph.aws4.compute_optimizer;" vertex="1" parent="1">
          <mxGeometry x="952" y="418" width="60" height="60" as="geometry" />
        </mxCell>
        <mxCell id="ALdv9pmXkEG0M57BJ0c6-36" value="AWS Management &amp;amp; Governance" style="text;html=1;align=center;verticalAlign=middle;resizable=0;points=[];autosize=1;strokeColor=none;fillColor=none;" vertex="1" parent="1">
          <mxGeometry x="799" y="390" width="200" height="30" as="geometry" />
        </mxCell>
        <mxCell id="ALdv9pmXkEG0M57BJ0c6-37" value="CloudWatch" style="text;html=1;align=center;verticalAlign=middle;resizable=0;points=[];autosize=1;strokeColor=none;fillColor=none;" vertex="1" parent="1">
          <mxGeometry x="774" y="483" width="90" height="30" as="geometry" />
        </mxCell>
        <mxCell id="ALdv9pmXkEG0M57BJ0c6-38" value="Monitoring" style="text;html=1;align=center;verticalAlign=middle;resizable=0;points=[];autosize=1;strokeColor=none;fillColor=none;" vertex="1" parent="1">
          <mxGeometry x="859" y="483" width="80" height="30" as="geometry" />
        </mxCell>
        <mxCell id="ALdv9pmXkEG0M57BJ0c6-39" value="Compute&lt;div&gt;Optimizer&lt;/div&gt;" style="text;html=1;align=center;verticalAlign=middle;resizable=0;points=[];autosize=1;strokeColor=none;fillColor=none;" vertex="1" parent="1">
          <mxGeometry x="947" y="480" width="70" height="40" as="geometry" />
        </mxCell>
        <mxCell id="ALdv9pmXkEG0M57BJ0c6-41" value="" style="rounded=1;whiteSpace=wrap;html=1;dashed=1;strokeColor=#7ba117;gradientColor=default;fillColor=none;strokeWidth=2;" vertex="1" parent="1">
          <mxGeometry x="490" y="360" width="179" height="160" as="geometry" />
        </mxCell>
        <mxCell id="ALdv9pmXkEG0M57BJ0c6-40" value="" style="sketch=0;points=[[0,0,0],[0.25,0,0],[0.5,0,0],[0.75,0,0],[1,0,0],[0,1,0],[0.25,1,0],[0.5,1,0],[0.75,1,0],[1,1,0],[0,0.25,0],[0,0.5,0],[0,0.75,0],[1,0.25,0],[1,0.5,0],[1,0.75,0]];outlineConnect=0;fontColor=#232F3E;fillColor=#7AA116;strokeColor=#ffffff;dashed=0;verticalLabelPosition=bottom;verticalAlign=top;align=center;html=1;fontSize=12;fontStyle=0;aspect=fixed;shape=mxgraph.aws4.resourceIcon;resIcon=mxgraph.aws4.storage;" vertex="1" parent="1">
          <mxGeometry x="549" y="330" width="60" height="60" as="geometry" />
        </mxCell>
        <mxCell id="ALdv9pmXkEG0M57BJ0c6-42" value="" style="sketch=0;points=[[0,0,0],[0.25,0,0],[0.5,0,0],[0.75,0,0],[1,0,0],[0,1,0],[0.25,1,0],[0.5,1,0],[0.75,1,0],[1,1,0],[0,0.25,0],[0,0.5,0],[0,0.75,0],[1,0.25,0],[1,0.5,0],[1,0.75,0]];outlineConnect=0;fontColor=#232F3E;fillColor=#7AA116;strokeColor=#ffffff;dashed=0;verticalLabelPosition=bottom;verticalAlign=top;align=center;html=1;fontSize=12;fontStyle=0;aspect=fixed;shape=mxgraph.aws4.resourceIcon;resIcon=mxgraph.aws4.backup;" vertex="1" parent="1">
          <mxGeometry x="509" y="420" width="60" height="60" as="geometry" />
        </mxCell>
        <mxCell id="ALdv9pmXkEG0M57BJ0c6-43" value="" style="sketch=0;points=[[0,0,0],[0.25,0,0],[0.5,0,0],[0.75,0,0],[1,0,0],[0,1,0],[0.25,1,0],[0.5,1,0],[0.75,1,0],[1,1,0],[0,0.25,0],[0,0.5,0],[0,0.75,0],[1,0.25,0],[1,0.5,0],[1,0.75,0]];outlineConnect=0;fontColor=#232F3E;fillColor=#7AA116;strokeColor=#ffffff;dashed=0;verticalLabelPosition=bottom;verticalAlign=top;align=center;html=1;fontSize=12;fontStyle=0;aspect=fixed;shape=mxgraph.aws4.resourceIcon;resIcon=mxgraph.aws4.s3;" vertex="1" parent="1">
          <mxGeometry x="589" y="418" width="60" height="60" as="geometry" />
        </mxCell>
        <mxCell id="ALdv9pmXkEG0M57BJ0c6-44" value="AWS&amp;nbsp;&lt;span style=&quot;background-color: initial;&quot;&gt;Backup&lt;/span&gt;" style="text;html=1;align=center;verticalAlign=middle;resizable=0;points=[];autosize=1;strokeColor=none;fillColor=none;" vertex="1" parent="1">
          <mxGeometry x="493" y="483" width="90" height="30" as="geometry" />
        </mxCell>
        <mxCell id="ALdv9pmXkEG0M57BJ0c6-45" value="AWS S3" style="text;html=1;align=center;verticalAlign=middle;resizable=0;points=[];autosize=1;strokeColor=none;fillColor=none;" vertex="1" parent="1">
          <mxGeometry x="583" y="483" width="70" height="30" as="geometry" />
        </mxCell>
        <mxCell id="ALdv9pmXkEG0M57BJ0c6-46" value="AWS Storage" style="text;html=1;align=center;verticalAlign=middle;resizable=0;points=[];autosize=1;strokeColor=none;fillColor=none;" vertex="1" parent="1">
          <mxGeometry x="529" y="390" width="100" height="30" as="geometry" />
        </mxCell>
        <mxCell id="ALdv9pmXkEG0M57BJ0c6-48" value="" style="rounded=1;whiteSpace=wrap;html=1;dashed=1;strokeColor=#dd344c;gradientColor=default;fillColor=none;strokeWidth=2;" vertex="1" parent="1">
          <mxGeometry x="200.68" y="360" width="179" height="160" as="geometry" />
        </mxCell>
        <mxCell id="ALdv9pmXkEG0M57BJ0c6-47" value="" style="sketch=0;points=[[0,0,0],[0.25,0,0],[0.5,0,0],[0.75,0,0],[1,0,0],[0,1,0],[0.25,1,0],[0.5,1,0],[0.75,1,0],[1,1,0],[0,0.25,0],[0,0.5,0],[0,0.75,0],[1,0.25,0],[1,0.5,0],[1,0.75,0]];outlineConnect=0;fontColor=#232F3E;fillColor=#DD344C;strokeColor=#ffffff;dashed=0;verticalLabelPosition=bottom;verticalAlign=top;align=center;html=1;fontSize=12;fontStyle=0;aspect=fixed;shape=mxgraph.aws4.resourceIcon;resIcon=mxgraph.aws4.security_identity_and_compliance;" vertex="1" parent="1">
          <mxGeometry x="260.18" y="330" width="60" height="60" as="geometry" />
        </mxCell>
        <mxCell id="ALdv9pmXkEG0M57BJ0c6-49" value="" style="sketch=0;outlineConnect=0;fontColor=#232F3E;gradientColor=none;fillColor=#DD344C;strokeColor=none;dashed=0;verticalLabelPosition=bottom;verticalAlign=top;align=center;html=1;fontSize=12;fontStyle=0;aspect=fixed;pointerEvents=1;shape=mxgraph.aws4.data_encryption_key;" vertex="1" parent="1">
          <mxGeometry x="230.68" y="418" width="47.7" height="60" as="geometry" />
        </mxCell>
        <mxCell id="ALdv9pmXkEG0M57BJ0c6-50" value="" style="sketch=0;points=[[0,0,0],[0.25,0,0],[0.5,0,0],[0.75,0,0],[1,0,0],[0,1,0],[0.25,1,0],[0.5,1,0],[0.75,1,0],[1,1,0],[0,0.25,0],[0,0.5,0],[0,0.75,0],[1,0.25,0],[1,0.5,0],[1,0.75,0]];outlineConnect=0;fontColor=#232F3E;fillColor=#DD344C;strokeColor=#ffffff;dashed=0;verticalLabelPosition=bottom;verticalAlign=top;align=center;html=1;fontSize=12;fontStyle=0;aspect=fixed;shape=mxgraph.aws4.resourceIcon;resIcon=mxgraph.aws4.network_firewall;" vertex="1" parent="1">
          <mxGeometry x="300.68" y="418" width="60" height="60" as="geometry" />
        </mxCell>
        <mxCell id="ALdv9pmXkEG0M57BJ0c6-51" value="IAM" style="text;html=1;align=center;verticalAlign=middle;resizable=0;points=[];autosize=1;strokeColor=none;fillColor=none;" vertex="1" parent="1">
          <mxGeometry x="234.53000000000003" y="485" width="40" height="30" as="geometry" />
        </mxCell>
        <mxCell id="ALdv9pmXkEG0M57BJ0c6-52" value="Network&lt;div&gt;Firewall&lt;/div&gt;" style="text;html=1;align=center;verticalAlign=middle;resizable=0;points=[];autosize=1;strokeColor=none;fillColor=none;" vertex="1" parent="1">
          <mxGeometry x="295.68" y="480" width="70" height="40" as="geometry" />
        </mxCell>
        <mxCell id="ALdv9pmXkEG0M57BJ0c6-53" value="Security &amp;amp; Identity" style="text;html=1;align=center;verticalAlign=middle;resizable=0;points=[];autosize=1;strokeColor=none;fillColor=none;" vertex="1" parent="1">
          <mxGeometry x="230.68" y="388" width="120" height="30" as="geometry" />
        </mxCell>
        <mxCell id="ALdv9pmXkEG0M57BJ0c6-54" value="" style="sketch=0;outlineConnect=0;fontColor=#232F3E;gradientColor=none;strokeColor=#ffffff;fillColor=#232F3E;dashed=0;verticalLabelPosition=middle;verticalAlign=bottom;align=center;html=1;whiteSpace=wrap;fontSize=10;fontStyle=1;spacing=3;shape=mxgraph.aws4.productIcon;prIcon=mxgraph.aws4.reserved_instance_reporting;" vertex="1" parent="1">
          <mxGeometry x="1189.5" y="330" width="60" height="60" as="geometry" />
        </mxCell>
        <mxCell id="ALdv9pmXkEG0M57BJ0c6-55" value="" style="sketch=0;outlineConnect=0;fontColor=#232F3E;gradientColor=none;strokeColor=#ffffff;fillColor=#232F3E;dashed=0;verticalLabelPosition=middle;verticalAlign=bottom;align=center;html=1;whiteSpace=wrap;fontSize=10;fontStyle=1;spacing=3;shape=mxgraph.aws4.productIcon;prIcon=mxgraph.aws4.cost_explorer;" vertex="1" parent="1">
          <mxGeometry x="1148" y="418" width="60" height="60" as="geometry" />
        </mxCell>
        <mxCell id="ALdv9pmXkEG0M57BJ0c6-74" value="Security group" style="fillColor=none;strokeColor=#DD3522;verticalAlign=top;fontStyle=0;fontColor=#DD3522;whiteSpace=wrap;html=1;strokeWidth=2;" vertex="1" parent="1">
          <mxGeometry x="226.5" y="930" width="177" height="330" as="geometry" />
        </mxCell>
        <mxCell id="ALdv9pmXkEG0M57BJ0c6-56" value="" style="sketch=0;outlineConnect=0;fontColor=#232F3E;gradientColor=none;strokeColor=#ffffff;fillColor=#232F3E;dashed=0;verticalLabelPosition=middle;verticalAlign=bottom;align=center;html=1;whiteSpace=wrap;fontSize=10;fontStyle=1;spacing=3;shape=mxgraph.aws4.productIcon;prIcon=mxgraph.aws4.budgets;" vertex="1" parent="1">
          <mxGeometry x="1229" y="418" width="60" height="60" as="geometry" />
        </mxCell>
        <mxCell id="ALdv9pmXkEG0M57BJ0c6-57" value="Cost Management" style="text;html=1;align=center;verticalAlign=middle;resizable=0;points=[];autosize=1;strokeColor=none;fillColor=none;" vertex="1" parent="1">
          <mxGeometry x="1159" y="390" width="120" height="30" as="geometry" />
        </mxCell>
        <mxCell id="ALdv9pmXkEG0M57BJ0c6-58" value="Cost Explorer" style="text;html=1;align=center;verticalAlign=middle;resizable=0;points=[];autosize=1;strokeColor=none;fillColor=none;" vertex="1" parent="1">
          <mxGeometry x="1130" y="483" width="100" height="30" as="geometry" />
        </mxCell>
        <mxCell id="ALdv9pmXkEG0M57BJ0c6-60" value="Budgets" style="text;html=1;align=center;verticalAlign=middle;resizable=0;points=[];autosize=1;strokeColor=none;fillColor=none;" vertex="1" parent="1">
          <mxGeometry x="1224" y="483" width="70" height="30" as="geometry" />
        </mxCell>
        <mxCell id="ALdv9pmXkEG0M57BJ0c6-61" value="" style="dashed=0;outlineConnect=0;html=1;align=center;labelPosition=center;verticalLabelPosition=bottom;verticalAlign=top;shape=mxgraph.weblogos.github;aspect=fixed;" vertex="1" parent="1">
          <mxGeometry x="-145" y="729.23" width="60" height="60" as="geometry" />
        </mxCell>
        <mxCell id="ALdv9pmXkEG0M57BJ0c6-62" value="Github Repo" style="text;html=1;align=center;verticalAlign=middle;resizable=0;points=[];autosize=1;strokeColor=none;fillColor=none;" vertex="1" parent="1">
          <mxGeometry x="-160" y="799.23" width="90" height="30" as="geometry" />
        </mxCell>
        <mxCell id="ALdv9pmXkEG0M57BJ0c6-63" style="edgeStyle=orthogonalEdgeStyle;rounded=0;orthogonalLoop=1;jettySize=auto;html=1;entryX=0;entryY=0.5;entryDx=0;entryDy=0;entryPerimeter=0;strokeWidth=1;" edge="1" parent="1" source="ALdv9pmXkEG0M57BJ0c6-61" target="ALdv9pmXkEG0M57BJ0c6-19">
          <mxGeometry relative="1" as="geometry" />
        </mxCell>
        <mxCell id="ALdv9pmXkEG0M57BJ0c6-65" value="&lt;font style=&quot;font-size: 20px;&quot;&gt;&lt;b&gt;Front-End&lt;/b&gt;&lt;/font&gt;" style="text;html=1;align=center;verticalAlign=middle;resizable=0;points=[];autosize=1;strokeColor=none;fillColor=none;" vertex="1" parent="1">
          <mxGeometry x="-160" y="640" width="120" height="40" as="geometry" />
        </mxCell>
        <mxCell id="ALdv9pmXkEG0M57BJ0c6-67" value="&lt;font style=&quot;font-size: 20px;&quot;&gt;&lt;b&gt;Back-End(Web)&lt;/b&gt;&lt;/font&gt;" style="text;html=1;align=center;verticalAlign=middle;resizable=0;points=[];autosize=1;strokeColor=none;fillColor=none;" vertex="1" parent="1">
          <mxGeometry x="165" y="641" width="170" height="40" as="geometry" />
        </mxCell>
        <mxCell id="ALdv9pmXkEG0M57BJ0c6-71" value="" style="outlineConnect=0;dashed=0;verticalLabelPosition=bottom;verticalAlign=top;align=center;html=1;shape=mxgraph.aws3.internet_gateway;fillColor=#F58536;gradientColor=none;aspect=fixed;" vertex="1" parent="1">
          <mxGeometry x="227" y="554" width="50" height="50" as="geometry" />
        </mxCell>
        <mxCell id="ALdv9pmXkEG0M57BJ0c6-85" value="" style="group" vertex="1" connectable="0" parent="1">
          <mxGeometry x="249.9999999999999" y="990" width="153.5000000000001" height="260" as="geometry" />
        </mxCell>
        <mxCell id="ALdv9pmXkEG0M57BJ0c6-75" value="EC2" style="points=[[0,0],[0.25,0],[0.5,0],[0.75,0],[1,0],[1,0.25],[1,0.5],[1,0.75],[1,1],[0.75,1],[0.5,1],[0.25,1],[0,1],[0,0.75],[0,0.5],[0,0.25]];outlineConnect=0;gradientColor=none;html=1;whiteSpace=wrap;fontSize=12;fontStyle=0;container=1;pointerEvents=0;collapsible=0;recursiveResize=0;shape=mxgraph.aws4.group;grIcon=mxgraph.aws4.group_ec2_instance_contents;strokeColor=#D86613;fillColor=none;verticalAlign=top;align=left;spacingLeft=30;fontColor=#D86613;dashed=0;strokeWidth=2;" vertex="1" parent="ALdv9pmXkEG0M57BJ0c6-85">
          <mxGeometry x="-6" y="-29" width="140" height="129" as="geometry" />
        </mxCell>
        <mxCell id="ALdv9pmXkEG0M57BJ0c6-84" value="EC2" style="points=[[0,0],[0.25,0],[0.5,0],[0.75,0],[1,0],[1,0.25],[1,0.5],[1,0.75],[1,1],[0.75,1],[0.5,1],[0.25,1],[0,1],[0,0.75],[0,0.5],[0,0.25]];outlineConnect=0;gradientColor=none;html=1;whiteSpace=wrap;fontSize=12;fontStyle=0;container=1;pointerEvents=0;collapsible=0;recursiveResize=0;shape=mxgraph.aws4.group;grIcon=mxgraph.aws4.group_ec2_instance_contents;strokeColor=#D86613;fillColor=none;verticalAlign=top;align=left;spacingLeft=30;fontColor=#D86613;dashed=0;strokeWidth=2;" vertex="1" parent="ALdv9pmXkEG0M57BJ0c6-85">
          <mxGeometry x="-5" y="120" width="140" height="130" as="geometry" />
        </mxCell>
        <mxCell id="ALdv9pmXkEG0M57BJ0c6-92" value="Private subnet" style="points=[[0,0],[0.25,0],[0.5,0],[0.75,0],[1,0],[1,0.25],[1,0.5],[1,0.75],[1,1],[0.75,1],[0.5,1],[0.25,1],[0,1],[0,0.75],[0,0.5],[0,0.25]];outlineConnect=0;gradientColor=none;html=1;whiteSpace=wrap;fontSize=12;fontStyle=0;container=1;pointerEvents=0;collapsible=0;recursiveResize=0;shape=mxgraph.aws4.group;grIcon=mxgraph.aws4.group_security_group;grStroke=0;strokeColor=#00A4A6;fillColor=#E6F6F7;verticalAlign=top;align=left;spacingLeft=30;fontColor=#147EBA;dashed=0;" vertex="1" parent="1">
          <mxGeometry x="490" y="680" width="180" height="500" as="geometry" />
        </mxCell>
        <mxCell id="ALdv9pmXkEG0M57BJ0c6-98" value="" style="sketch=0;outlineConnect=0;fontColor=#232F3E;gradientColor=none;fillColor=#8C4FFF;strokeColor=none;dashed=0;verticalLabelPosition=bottom;verticalAlign=top;align=center;html=1;fontSize=12;fontStyle=0;aspect=fixed;pointerEvents=1;shape=mxgraph.aws4.route_table;" vertex="1" parent="ALdv9pmXkEG0M57BJ0c6-92">
          <mxGeometry x="60" y="60" width="60" height="58.46" as="geometry" />
        </mxCell>
        <mxCell id="ALdv9pmXkEG0M57BJ0c6-102" value="Route Table" style="text;html=1;align=center;verticalAlign=middle;resizable=0;points=[];autosize=1;strokeColor=none;fillColor=none;" vertex="1" parent="ALdv9pmXkEG0M57BJ0c6-92">
          <mxGeometry x="45" y="118.46000000000004" width="90" height="30" as="geometry" />
        </mxCell>
        <mxCell id="ALdv9pmXkEG0M57BJ0c6-99" value="Security group" style="fillColor=none;strokeColor=#DD3522;verticalAlign=top;fontStyle=0;fontColor=#DD3522;whiteSpace=wrap;html=1;strokeWidth=2;" vertex="1" parent="ALdv9pmXkEG0M57BJ0c6-92">
          <mxGeometry x="30" y="170" width="120" height="140" as="geometry" />
        </mxCell>
        <mxCell id="ALdv9pmXkEG0M57BJ0c6-108" value="DocumentDB" style="text;html=1;align=center;verticalAlign=middle;resizable=0;points=[];autosize=1;strokeColor=none;fillColor=none;" vertex="1" parent="ALdv9pmXkEG0M57BJ0c6-92">
          <mxGeometry x="45" y="280" width="90" height="30" as="geometry" />
        </mxCell>
        <mxCell id="ALdv9pmXkEG0M57BJ0c6-107" value="" style="sketch=0;points=[[0,0,0],[0.25,0,0],[0.5,0,0],[0.75,0,0],[1,0,0],[0,1,0],[0.25,1,0],[0.5,1,0],[0.75,1,0],[1,1,0],[0,0.25,0],[0,0.5,0],[0,0.75,0],[1,0.25,0],[1,0.5,0],[1,0.75,0]];outlineConnect=0;fontColor=#232F3E;fillColor=#0066CC;strokeColor=#ffffff;dashed=0;verticalLabelPosition=bottom;verticalAlign=top;align=center;html=1;fontSize=12;fontStyle=0;aspect=fixed;shape=mxgraph.aws4.resourceIcon;resIcon=mxgraph.aws4.documentdb_with_mongodb_compatibility;" vertex="1" parent="ALdv9pmXkEG0M57BJ0c6-92">
          <mxGeometry x="50" y="201" width="78" height="78" as="geometry" />
        </mxCell>
        <mxCell id="ALdv9pmXkEG0M57BJ0c6-121" value="Security group" style="fillColor=none;strokeColor=#DD3522;verticalAlign=top;fontStyle=0;fontColor=#DD3522;whiteSpace=wrap;html=1;strokeWidth=2;" vertex="1" parent="ALdv9pmXkEG0M57BJ0c6-92">
          <mxGeometry x="30" y="340" width="120" height="140" as="geometry" />
        </mxCell>
        <mxCell id="ALdv9pmXkEG0M57BJ0c6-120" value="" style="sketch=0;points=[[0,0,0],[0.25,0,0],[0.5,0,0],[0.75,0,0],[1,0,0],[0,1,0],[0.25,1,0],[0.5,1,0],[0.75,1,0],[1,1,0],[0,0.25,0],[0,0.5,0],[0,0.75,0],[1,0.25,0],[1,0.5,0],[1,0.75,0]];outlineConnect=0;fontColor=#232F3E;fillColor=#C925D1;strokeColor=#ffffff;dashed=0;verticalLabelPosition=bottom;verticalAlign=top;align=center;html=1;fontSize=12;fontStyle=0;aspect=fixed;shape=mxgraph.aws4.resourceIcon;resIcon=mxgraph.aws4.elasticache;" vertex="1" parent="ALdv9pmXkEG0M57BJ0c6-92">
          <mxGeometry x="50" y="371" width="78" height="78" as="geometry" />
        </mxCell>
        <mxCell id="ALdv9pmXkEG0M57BJ0c6-122" value="ElastiCache" style="text;html=1;align=center;verticalAlign=middle;resizable=0;points=[];autosize=1;strokeColor=none;fillColor=none;" vertex="1" parent="ALdv9pmXkEG0M57BJ0c6-92">
          <mxGeometry x="45" y="450" width="90" height="30" as="geometry" />
        </mxCell>
        <mxCell id="ALdv9pmXkEG0M57BJ0c6-118" style="edgeStyle=orthogonalEdgeStyle;rounded=0;orthogonalLoop=1;jettySize=auto;html=1;exitX=1;exitY=0.5;exitDx=0;exitDy=0;exitPerimeter=0;entryX=0.5;entryY=0;entryDx=0;entryDy=0;startArrow=classic;startFill=1;strokeWidth=1;" edge="1" parent="1" source="ALdv9pmXkEG0M57BJ0c6-72" target="ALdv9pmXkEG0M57BJ0c6-73">
          <mxGeometry relative="1" as="geometry" />
        </mxCell>
        <mxCell id="ALdv9pmXkEG0M57BJ0c6-72" value="" style="sketch=0;points=[[0,0,0],[0.25,0,0],[0.5,0,0],[0.75,0,0],[1,0,0],[0,1,0],[0.25,1,0],[0.5,1,0],[0.75,1,0],[1,1,0],[0,0.25,0],[0,0.5,0],[0,0.75,0],[1,0.25,0],[1,0.5,0],[1,0.75,0]];outlineConnect=0;fontColor=#232F3E;fillColor=#ED7100;strokeColor=#ffffff;dashed=0;verticalLabelPosition=bottom;verticalAlign=top;align=center;html=1;fontSize=12;fontStyle=0;aspect=fixed;shape=mxgraph.aws4.resourceIcon;resIcon=mxgraph.aws4.elastic_load_balancing;" vertex="1" parent="1">
          <mxGeometry x="209" y="740" width="60" height="60" as="geometry" />
        </mxCell>
        <mxCell id="ALdv9pmXkEG0M57BJ0c6-76" value="" style="sketch=0;outlineConnect=0;fontColor=#232F3E;gradientColor=none;fillColor=#ED7100;strokeColor=none;dashed=0;verticalLabelPosition=bottom;verticalAlign=top;align=center;html=1;fontSize=12;fontStyle=0;aspect=fixed;pointerEvents=1;shape=mxgraph.aws4.a1_instance;" vertex="1" parent="1">
          <mxGeometry x="261" y="1000" width="48" height="48" as="geometry" />
        </mxCell>
        <mxCell id="ALdv9pmXkEG0M57BJ0c6-82" value="Instances" style="text;html=1;align=center;verticalAlign=middle;resizable=0;points=[];autosize=1;strokeColor=none;fillColor=none;" vertex="1" parent="1">
          <mxGeometry x="249.9999999999999" y="1048" width="70" height="30" as="geometry" />
        </mxCell>
        <mxCell id="ALdv9pmXkEG0M57BJ0c6-77" value="" style="shape=image;verticalLabelPosition=bottom;labelBackgroundColor=default;verticalAlign=top;imageAspect=0;image=https://static-00.iconduck.com/assets.00/programming-language-flask-icon-2048x1826-wf5k5ugs.png;aspect=fixed;" vertex="1" parent="1">
          <mxGeometry x="323.38" y="1000" width="48" height="48" as="geometry" />
        </mxCell>
        <mxCell id="ALdv9pmXkEG0M57BJ0c6-83" value="Flask" style="text;html=1;align=center;verticalAlign=middle;resizable=0;points=[];autosize=1;strokeColor=none;fillColor=none;" vertex="1" parent="1">
          <mxGeometry x="323.38" y="1048" width="50" height="30" as="geometry" />
        </mxCell>
        <mxCell id="ALdv9pmXkEG0M57BJ0c6-88" value="" style="shape=image;verticalLabelPosition=bottom;labelBackgroundColor=default;verticalAlign=top;imageAspect=0;image=https://static-00.iconduck.com/assets.00/programming-language-flask-icon-2048x1826-wf5k5ugs.png;aspect=fixed;" vertex="1" parent="1">
          <mxGeometry x="323.3800000000001" y="1150" width="48" height="48" as="geometry" />
        </mxCell>
        <mxCell id="ALdv9pmXkEG0M57BJ0c6-87" value="" style="sketch=0;outlineConnect=0;fontColor=#232F3E;gradientColor=none;fillColor=#ED7100;strokeColor=none;dashed=0;verticalLabelPosition=bottom;verticalAlign=top;align=center;html=1;fontSize=12;fontStyle=0;aspect=fixed;pointerEvents=1;shape=mxgraph.aws4.a1_instance;" vertex="1" parent="1">
          <mxGeometry x="261" y="1150" width="48" height="48" as="geometry" />
        </mxCell>
        <mxCell id="ALdv9pmXkEG0M57BJ0c6-89" value="Instances" style="text;html=1;align=center;verticalAlign=middle;resizable=0;points=[];autosize=1;strokeColor=none;fillColor=none;" vertex="1" parent="1">
          <mxGeometry x="249.9999999999999" y="1198" width="70" height="30" as="geometry" />
        </mxCell>
        <mxCell id="ALdv9pmXkEG0M57BJ0c6-90" value="Flask" style="text;html=1;align=center;verticalAlign=middle;resizable=0;points=[];autosize=1;strokeColor=none;fillColor=none;" vertex="1" parent="1">
          <mxGeometry x="323.3800000000001" y="1198" width="50" height="30" as="geometry" />
        </mxCell>
        <mxCell id="ALdv9pmXkEG0M57BJ0c6-117" value="" style="endArrow=classic;html=1;rounded=0;strokeWidth=1;" edge="1" parent="1" source="ALdv9pmXkEG0M57BJ0c6-104">
          <mxGeometry width="50" height="50" relative="1" as="geometry">
            <mxPoint x="365" y="811" as="sourcePoint" />
            <mxPoint x="365" y="719.46" as="targetPoint" />
            <Array as="points">
              <mxPoint x="335" y="814" />
              <mxPoint x="335" y="719" />
            </Array>
          </mxGeometry>
        </mxCell>
        <mxCell id="ALdv9pmXkEG0M57BJ0c6-105" value="Elastic&amp;nbsp;&lt;div&gt;Network Interface&lt;/div&gt;" style="text;html=1;align=center;verticalAlign=middle;resizable=0;points=[];autosize=1;strokeColor=none;fillColor=none;" vertex="1" parent="1">
          <mxGeometry x="335" y="745" width="120" height="40" as="geometry" />
        </mxCell>
        <mxCell id="ALdv9pmXkEG0M57BJ0c6-119" value="Elastic&lt;div&gt;Load Balancer&lt;/div&gt;" style="text;html=1;align=center;verticalAlign=middle;resizable=0;points=[];autosize=1;strokeColor=none;fillColor=none;" vertex="1" parent="1">
          <mxGeometry x="189" y="810" width="100" height="40" as="geometry" />
        </mxCell>
        <mxCell id="ALdv9pmXkEG0M57BJ0c6-123" style="edgeStyle=orthogonalEdgeStyle;rounded=0;orthogonalLoop=1;jettySize=auto;html=1;entryX=0;entryY=0.5;entryDx=0;entryDy=0;startArrow=classic;startFill=1;" edge="1" parent="1" source="ALdv9pmXkEG0M57BJ0c6-75" target="ALdv9pmXkEG0M57BJ0c6-99">
          <mxGeometry relative="1" as="geometry">
            <Array as="points">
              <mxPoint x="470" y="1026" />
              <mxPoint x="470" y="920" />
            </Array>
          </mxGeometry>
        </mxCell>
        <mxCell id="ALdv9pmXkEG0M57BJ0c6-125" style="edgeStyle=orthogonalEdgeStyle;rounded=0;orthogonalLoop=1;jettySize=auto;html=1;exitX=1;exitY=0.5;exitDx=0;exitDy=0;entryX=0;entryY=0.5;entryDx=0;entryDy=0;startArrow=classic;startFill=1;" edge="1" parent="1" source="ALdv9pmXkEG0M57BJ0c6-84" target="ALdv9pmXkEG0M57BJ0c6-99">
          <mxGeometry relative="1" as="geometry">
            <Array as="points">
              <mxPoint x="470" y="1175" />
              <mxPoint x="470" y="920" />
            </Array>
          </mxGeometry>
        </mxCell>
        <mxCell id="ALdv9pmXkEG0M57BJ0c6-126" style="edgeStyle=orthogonalEdgeStyle;rounded=0;orthogonalLoop=1;jettySize=auto;html=1;exitX=1;exitY=0.5;exitDx=0;exitDy=0;entryX=0;entryY=0.5;entryDx=0;entryDy=0;" edge="1" parent="1" source="ALdv9pmXkEG0M57BJ0c6-75" target="ALdv9pmXkEG0M57BJ0c6-121">
          <mxGeometry relative="1" as="geometry">
            <Array as="points">
              <mxPoint x="470" y="1026" />
              <mxPoint x="470" y="1090" />
            </Array>
          </mxGeometry>
        </mxCell>
        <mxCell id="ALdv9pmXkEG0M57BJ0c6-127" style="edgeStyle=orthogonalEdgeStyle;rounded=0;orthogonalLoop=1;jettySize=auto;html=1;exitX=1;exitY=0.5;exitDx=0;exitDy=0;entryX=0.5;entryY=1;entryDx=0;entryDy=0;" edge="1" parent="1" source="ALdv9pmXkEG0M57BJ0c6-84" target="ALdv9pmXkEG0M57BJ0c6-41">
          <mxGeometry relative="1" as="geometry">
            <mxPoint x="470" y="520" as="targetPoint" />
            <Array as="points">
              <mxPoint x="470" y="1175" />
              <mxPoint x="470" y="650" />
              <mxPoint x="580" y="650" />
            </Array>
          </mxGeometry>
        </mxCell>
        <mxCell id="ALdv9pmXkEG0M57BJ0c6-128" value="" style="rounded=1;whiteSpace=wrap;html=1;dashed=1;strokeColor=#333333;gradientColor=default;fillColor=none;strokeWidth=2;" vertex="1" parent="1">
          <mxGeometry x="740" y="620" width="610" height="710" as="geometry" />
        </mxCell>
        <mxCell id="ALdv9pmXkEG0M57BJ0c6-129" value="&lt;font style=&quot;font-size: 20px;&quot;&gt;&lt;b&gt;Back-End(Voice)&lt;/b&gt;&lt;/font&gt;" style="text;html=1;align=center;verticalAlign=middle;resizable=0;points=[];autosize=1;strokeColor=none;fillColor=none;" vertex="1" parent="1">
          <mxGeometry x="767" y="640" width="180" height="40" as="geometry" />
        </mxCell>
        <mxCell id="ALdv9pmXkEG0M57BJ0c6-140" value="NAT Gateway" style="text;html=1;align=center;verticalAlign=middle;resizable=0;points=[];autosize=1;strokeColor=none;fillColor=none;" vertex="1" parent="1">
          <mxGeometry x="945" y="764.23" width="100" height="30" as="geometry" />
        </mxCell>
        <mxCell id="ALdv9pmXkEG0M57BJ0c6-131" value="Private subnet" style="points=[[0,0],[0.25,0],[0.5,0],[0.75,0],[1,0],[1,0.25],[1,0.5],[1,0.75],[1,1],[0.75,1],[0.5,1],[0.25,1],[0,1],[0,0.75],[0,0.5],[0,0.25]];outlineConnect=0;gradientColor=none;html=1;whiteSpace=wrap;fontSize=12;fontStyle=0;container=0;pointerEvents=0;collapsible=0;recursiveResize=0;shape=mxgraph.aws4.group;grIcon=mxgraph.aws4.group_security_group;grStroke=0;strokeColor=#00A4A6;fillColor=#E6F6F7;verticalAlign=top;align=left;spacingLeft=30;fontColor=#147EBA;dashed=0;movable=1;resizable=1;rotatable=1;deletable=1;editable=1;locked=0;connectable=1;" vertex="1" parent="1">
          <mxGeometry x="770" y="680" width="330" height="618.46" as="geometry" />
        </mxCell>
        <mxCell id="ALdv9pmXkEG0M57BJ0c6-134" style="edgeStyle=orthogonalEdgeStyle;rounded=0;orthogonalLoop=1;jettySize=auto;html=1;exitX=1;exitY=0.5;exitDx=0;exitDy=0;exitPerimeter=0;entryX=0.5;entryY=0;entryDx=0;entryDy=0;startArrow=classic;startFill=1;strokeWidth=1;movable=1;resizable=1;rotatable=1;deletable=1;editable=1;locked=0;connectable=1;" edge="1" parent="1" source="ALdv9pmXkEG0M57BJ0c6-135" target="ALdv9pmXkEG0M57BJ0c6-132">
          <mxGeometry relative="1" as="geometry" />
        </mxCell>
        <mxCell id="ALdv9pmXkEG0M57BJ0c6-135" value="" style="sketch=0;points=[[0,0,0],[0.25,0,0],[0.5,0,0],[0.75,0,0],[1,0,0],[0,1,0],[0.25,1,0],[0.5,1,0],[0.75,1,0],[1,1,0],[0,0.25,0],[0,0.5,0],[0,0.75,0],[1,0.25,0],[1,0.5,0],[1,0.75,0]];outlineConnect=0;fontColor=#232F3E;fillColor=#ED7100;strokeColor=#ffffff;dashed=0;verticalLabelPosition=bottom;verticalAlign=top;align=center;html=1;fontSize=12;fontStyle=0;aspect=fixed;shape=mxgraph.aws4.resourceIcon;resIcon=mxgraph.aws4.elastic_load_balancing;movable=0;resizable=0;rotatable=0;deletable=0;editable=0;locked=1;connectable=0;" vertex="1" parent="1">
          <mxGeometry x="799" y="740" width="60" height="60" as="geometry" />
        </mxCell>
        <mxCell id="ALdv9pmXkEG0M57BJ0c6-136" value="" style="sketch=0;outlineConnect=0;fontColor=#232F3E;gradientColor=none;fillColor=#8C4FFF;strokeColor=none;dashed=0;verticalLabelPosition=bottom;verticalAlign=top;align=center;html=1;fontSize=12;fontStyle=0;aspect=fixed;pointerEvents=1;shape=mxgraph.aws4.route_table;movable=1;resizable=1;rotatable=1;deletable=1;editable=1;locked=0;connectable=1;" vertex="1" parent="1">
          <mxGeometry x="1000" y="785.77" width="60" height="58.46" as="geometry" />
        </mxCell>
        <mxCell id="ALdv9pmXkEG0M57BJ0c6-137" value="Route Table" style="text;html=1;align=center;verticalAlign=middle;resizable=1;points=[];autosize=1;strokeColor=none;fillColor=none;movable=1;rotatable=1;deletable=1;editable=1;locked=0;connectable=1;" vertex="1" parent="1">
          <mxGeometry x="985" y="841.23" width="90" height="30" as="geometry" />
        </mxCell>
        <mxCell id="ALdv9pmXkEG0M57BJ0c6-138" value="" style="endArrow=classic;html=1;rounded=0;strokeWidth=1;movable=1;resizable=1;rotatable=1;deletable=1;editable=1;locked=0;connectable=1;" edge="1" parent="1" source="ALdv9pmXkEG0M57BJ0c6-136">
          <mxGeometry width="50" height="50" relative="1" as="geometry">
            <mxPoint x="1000" y="811" as="sourcePoint" />
            <mxPoint x="1000" y="719.46" as="targetPoint" />
            <Array as="points">
              <mxPoint x="970" y="815" />
              <mxPoint x="970" y="719" />
            </Array>
          </mxGeometry>
        </mxCell>
        <mxCell id="ALdv9pmXkEG0M57BJ0c6-167" style="edgeStyle=orthogonalEdgeStyle;rounded=0;orthogonalLoop=1;jettySize=auto;html=1;endArrow=none;endFill=0;" edge="1" parent="1" source="ALdv9pmXkEG0M57BJ0c6-181">
          <mxGeometry relative="1" as="geometry">
            <mxPoint x="440" y="550" as="targetPoint" />
            <mxPoint x="1060" y="720" as="sourcePoint" />
            <Array as="points">
              <mxPoint x="1080" y="720" />
              <mxPoint x="1080" y="550" />
            </Array>
          </mxGeometry>
        </mxCell>
        <mxCell id="ALdv9pmXkEG0M57BJ0c6-141" value="Elastic&lt;div&gt;Load Balancer&lt;/div&gt;" style="text;html=1;align=center;verticalAlign=middle;resizable=0;points=[];autosize=1;strokeColor=none;fillColor=none;movable=0;rotatable=0;deletable=0;editable=0;locked=1;connectable=0;" vertex="1" parent="1">
          <mxGeometry x="779" y="810" width="100" height="40" as="geometry" />
        </mxCell>
        <mxCell id="ALdv9pmXkEG0M57BJ0c6-132" value="Auto Scaling group" style="points=[[0,0],[0.25,0],[0.5,0],[0.75,0],[1,0],[1,0.25],[1,0.5],[1,0.75],[1,1],[0.75,1],[0.5,1],[0.25,1],[0,1],[0,0.75],[0,0.5],[0,0.25]];outlineConnect=0;gradientColor=none;html=1;whiteSpace=wrap;fontSize=12;fontStyle=0;container=0;pointerEvents=0;collapsible=0;recursiveResize=0;shape=mxgraph.aws4.groupCenter;grIcon=mxgraph.aws4.group_auto_scaling_group;grStroke=1;strokeColor=#D86613;fillColor=none;verticalAlign=top;align=center;fontColor=#D86613;dashed=1;spacingTop=25;strokeWidth=2;movable=1;resizable=1;rotatable=1;deletable=1;editable=1;locked=0;connectable=1;" vertex="1" parent="1">
          <mxGeometry x="797.3399999999999" y="868.46" width="282.66" height="411.54" as="geometry" />
        </mxCell>
        <mxCell id="ALdv9pmXkEG0M57BJ0c6-143" value="Security group" style="fillColor=none;strokeColor=#DD3522;verticalAlign=top;fontStyle=0;fontColor=#DD3522;whiteSpace=wrap;html=1;strokeWidth=2;movable=1;resizable=1;rotatable=1;deletable=1;editable=1;locked=0;connectable=1;" vertex="1" parent="1">
          <mxGeometry x="816.5" y="930" width="243.5" height="330" as="geometry" />
        </mxCell>
        <mxCell id="ALdv9pmXkEG0M57BJ0c6-148" value="&lt;font style=&quot;font-size: 12px;&quot;&gt;Worker&lt;/font&gt;" style="text;html=1;align=center;verticalAlign=middle;resizable=1;points=[];autosize=1;strokeColor=none;fillColor=none;movable=1;rotatable=1;deletable=1;editable=1;locked=0;connectable=1;" vertex="1" parent="1">
          <mxGeometry x="844.9999999999998" y="1049" width="60" height="30" as="geometry" />
        </mxCell>
        <mxCell id="ALdv9pmXkEG0M57BJ0c6-145" value="EC2" style="points=[[0,0],[0.25,0],[0.5,0],[0.75,0],[1,0],[1,0.25],[1,0.5],[1,0.75],[1,1],[0.75,1],[0.5,1],[0.25,1],[0,1],[0,0.75],[0,0.5],[0,0.25]];outlineConnect=0;gradientColor=none;html=1;whiteSpace=wrap;fontSize=12;fontStyle=0;container=1;pointerEvents=0;collapsible=0;recursiveResize=0;shape=mxgraph.aws4.group;grIcon=mxgraph.aws4.group_ec2_instance_contents;strokeColor=#D86613;fillColor=none;verticalAlign=top;align=left;spacingLeft=30;fontColor=#D86613;dashed=0;strokeWidth=2;movable=1;resizable=1;rotatable=1;deletable=1;editable=1;locked=0;connectable=1;" vertex="1" parent="1">
          <mxGeometry x="834" y="961" width="206" height="129" as="geometry" />
        </mxCell>
        <mxCell id="ALdv9pmXkEG0M57BJ0c6-159" value="Twillio" style="text;html=1;align=center;verticalAlign=middle;resizable=0;points=[];autosize=1;strokeColor=none;fillColor=none;" vertex="1" parent="ALdv9pmXkEG0M57BJ0c6-145">
          <mxGeometry x="141.24" y="87.79" width="60" height="30" as="geometry" />
        </mxCell>
        <mxCell id="ALdv9pmXkEG0M57BJ0c6-172" value="" style="image;aspect=fixed;html=1;points=[];align=center;fontSize=12;image=img/lib/azure2/other/Worker_Container_App.svg;imageBackground=none;" vertex="1" parent="ALdv9pmXkEG0M57BJ0c6-145">
          <mxGeometry x="17" y="41.200000000000045" width="48" height="46.59" as="geometry" />
        </mxCell>
        <mxCell id="ALdv9pmXkEG0M57BJ0c6-178" value="" style="shape=image;verticalLabelPosition=bottom;labelBackgroundColor=default;verticalAlign=top;aspect=fixed;imageAspect=0;image=https://upload.wikimedia.org/wikipedia/commons/1/19/Celery_logo.png;" vertex="1" parent="ALdv9pmXkEG0M57BJ0c6-145">
          <mxGeometry x="80" y="37.789999999999964" width="50" height="50" as="geometry" />
        </mxCell>
        <mxCell id="ALdv9pmXkEG0M57BJ0c6-146" value="EC2" style="points=[[0,0],[0.25,0],[0.5,0],[0.75,0],[1,0],[1,0.25],[1,0.5],[1,0.75],[1,1],[0.75,1],[0.5,1],[0.25,1],[0,1],[0,0.75],[0,0.5],[0,0.25]];outlineConnect=0;gradientColor=none;html=1;whiteSpace=wrap;fontSize=12;fontStyle=0;container=1;pointerEvents=0;collapsible=0;recursiveResize=0;shape=mxgraph.aws4.group;grIcon=mxgraph.aws4.group_ec2_instance_contents;strokeColor=#D86613;fillColor=none;verticalAlign=top;align=left;spacingLeft=30;fontColor=#D86613;dashed=0;strokeWidth=2;movable=1;resizable=1;rotatable=1;deletable=1;editable=1;locked=0;connectable=1;" vertex="1" parent="1">
          <mxGeometry x="835" y="1110" width="205" height="130" as="geometry" />
        </mxCell>
        <mxCell id="ALdv9pmXkEG0M57BJ0c6-160" value="Twillio" style="text;html=1;align=center;verticalAlign=middle;resizable=0;points=[];autosize=1;strokeColor=none;fillColor=none;" vertex="1" parent="ALdv9pmXkEG0M57BJ0c6-146">
          <mxGeometry x="140.24" y="90" width="60" height="30" as="geometry" />
        </mxCell>
        <mxCell id="ALdv9pmXkEG0M57BJ0c6-174" value="" style="image;aspect=fixed;html=1;points=[];align=center;fontSize=12;image=img/lib/azure2/other/Worker_Container_App.svg;imageBackground=none;" vertex="1" parent="ALdv9pmXkEG0M57BJ0c6-146">
          <mxGeometry x="16" y="43.41000000000008" width="48" height="46.59" as="geometry" />
        </mxCell>
        <mxCell id="ALdv9pmXkEG0M57BJ0c6-175" value="&lt;font style=&quot;font-size: 12px;&quot;&gt;Worker&lt;/font&gt;" style="text;html=1;align=center;verticalAlign=middle;resizable=1;points=[];autosize=1;strokeColor=none;fillColor=none;movable=1;rotatable=1;deletable=1;editable=1;locked=0;connectable=1;" vertex="1" parent="ALdv9pmXkEG0M57BJ0c6-146">
          <mxGeometry x="9.999999999999773" y="90" width="60" height="30" as="geometry" />
        </mxCell>
        <mxCell id="ALdv9pmXkEG0M57BJ0c6-177" value="" style="shape=image;verticalLabelPosition=bottom;labelBackgroundColor=default;verticalAlign=top;aspect=fixed;imageAspect=0;image=https://upload.wikimedia.org/wikipedia/commons/1/19/Celery_logo.png;" vertex="1" parent="ALdv9pmXkEG0M57BJ0c6-146">
          <mxGeometry x="78.5" y="41.710000000000036" width="50" height="50" as="geometry" />
        </mxCell>
        <mxCell id="ALdv9pmXkEG0M57BJ0c6-150" value="Celery" style="text;html=1;align=center;verticalAlign=middle;resizable=1;points=[];autosize=1;strokeColor=none;fillColor=none;movable=1;rotatable=1;deletable=1;editable=1;locked=0;connectable=1;" vertex="1" parent="1">
          <mxGeometry x="910.8700000000001" y="1048.5" width="60" height="30" as="geometry" />
        </mxCell>
        <mxCell id="ALdv9pmXkEG0M57BJ0c6-155" value="Celery" style="text;html=1;align=center;verticalAlign=middle;resizable=1;points=[];autosize=1;strokeColor=none;fillColor=none;movable=1;rotatable=1;deletable=1;editable=1;locked=0;connectable=1;" vertex="1" parent="1">
          <mxGeometry x="910.8700000000001" y="1200" width="60" height="30" as="geometry" />
        </mxCell>
        <mxCell id="ALdv9pmXkEG0M57BJ0c6-157" value="" style="shape=image;verticalLabelPosition=bottom;labelBackgroundColor=default;verticalAlign=top;aspect=fixed;imageAspect=0;image=https://upload.wikimedia.org/wikipedia/commons/thumb/c/c0/Twilio_logo.png/1200px-Twilio_logo.png;clipPath=inset(0% 66.67% 0% 0%);" vertex="1" parent="1">
          <mxGeometry x="977.8599999999999" y="997.75" width="55.27" height="52.5" as="geometry" />
        </mxCell>
        <mxCell id="ALdv9pmXkEG0M57BJ0c6-158" value="" style="shape=image;verticalLabelPosition=bottom;labelBackgroundColor=default;verticalAlign=top;aspect=fixed;imageAspect=0;image=https://upload.wikimedia.org/wikipedia/commons/thumb/c/c0/Twilio_logo.png/1200px-Twilio_logo.png;clipPath=inset(0% 66.67% 0% 0%);" vertex="1" parent="1">
          <mxGeometry x="977.3399999999999" y="1150" width="55.79" height="53" as="geometry" />
        </mxCell>
        <mxCell id="ALdv9pmXkEG0M57BJ0c6-161" value="" style="shape=image;html=1;verticalAlign=top;verticalLabelPosition=bottom;labelBackgroundColor=#ffffff;imageAspect=0;aspect=fixed;image=https://cdn1.iconfinder.com/data/icons/ionicons-fill-vol-2/512/logo-react-128.png" vertex="1" parent="1">
          <mxGeometry x="-146" y="829.23" width="62" height="62" as="geometry" />
        </mxCell>
        <mxCell id="ALdv9pmXkEG0M57BJ0c6-162" value="React" style="text;html=1;align=center;verticalAlign=middle;resizable=0;points=[];autosize=1;strokeColor=none;fillColor=none;" vertex="1" parent="1">
          <mxGeometry x="-140" y="891.23" width="50" height="30" as="geometry" />
        </mxCell>
        <mxCell id="ALdv9pmXkEG0M57BJ0c6-164" value="" style="rounded=1;whiteSpace=wrap;html=1;dashed=1;strokeColor=#808080;gradientColor=default;fillColor=none;strokeWidth=2;" vertex="1" parent="1">
          <mxGeometry x="-166" y="710" width="104" height="210" as="geometry" />
        </mxCell>
        <mxCell id="ALdv9pmXkEG0M57BJ0c6-165" style="edgeStyle=orthogonalEdgeStyle;rounded=0;orthogonalLoop=1;jettySize=auto;html=1;entryX=0.809;entryY=1;entryDx=0;entryDy=0;entryPerimeter=0;exitX=1;exitY=0.5;exitDx=0;exitDy=0;exitPerimeter=0;" edge="1" parent="1" source="ALdv9pmXkEG0M57BJ0c6-179" target="ALdv9pmXkEG0M57BJ0c6-21">
          <mxGeometry relative="1" as="geometry">
            <mxPoint x="425" y="720.0588235294117" as="sourcePoint" />
            <Array as="points">
              <mxPoint x="440" y="720" />
              <mxPoint x="440" y="550" />
              <mxPoint x="59" y="550" />
            </Array>
          </mxGeometry>
        </mxCell>
        <mxCell id="ALdv9pmXkEG0M57BJ0c6-168" value="Internet Gateway" style="text;html=1;align=center;verticalAlign=middle;resizable=0;points=[];autosize=1;strokeColor=none;fillColor=none;fontSize=13;" vertex="1" parent="1">
          <mxGeometry x="266.75" y="580" width="120" height="30" as="geometry" />
        </mxCell>
        <mxCell id="ALdv9pmXkEG0M57BJ0c6-179" value="" style="outlineConnect=0;dashed=0;verticalLabelPosition=bottom;verticalAlign=top;align=center;html=1;shape=mxgraph.aws3.elastic_network_interface;fillColor=#F58534;gradientColor=none;aspect=fixed;" vertex="1" parent="1">
          <mxGeometry x="365" y="690" width="57.5" height="60" as="geometry" />
        </mxCell>
        <mxCell id="ALdv9pmXkEG0M57BJ0c6-180" value="Elastic&amp;nbsp;&lt;div&gt;Network Interface&lt;/div&gt;" style="text;html=1;align=center;verticalAlign=middle;resizable=0;points=[];autosize=1;strokeColor=none;fillColor=none;" vertex="1" parent="1">
          <mxGeometry x="970" y="745" width="120" height="40" as="geometry" />
        </mxCell>
        <mxCell id="ALdv9pmXkEG0M57BJ0c6-181" value="" style="outlineConnect=0;dashed=0;verticalLabelPosition=bottom;verticalAlign=top;align=center;html=1;shape=mxgraph.aws3.elastic_network_interface;fillColor=#F58534;gradientColor=none;aspect=fixed;" vertex="1" parent="1">
          <mxGeometry x="1000" y="690" width="57.5" height="60" as="geometry" />
        </mxCell>
        <mxCell id="ALdv9pmXkEG0M57BJ0c6-182" value="Private subnet" style="points=[[0,0],[0.25,0],[0.5,0],[0.75,0],[1,0],[1,0.25],[1,0.5],[1,0.75],[1,1],[0.75,1],[0.5,1],[0.25,1],[0,1],[0,0.75],[0,0.5],[0,0.25]];outlineConnect=0;gradientColor=none;html=1;whiteSpace=wrap;fontSize=12;fontStyle=0;container=1;pointerEvents=0;collapsible=0;recursiveResize=0;shape=mxgraph.aws4.group;grIcon=mxgraph.aws4.group_security_group;grStroke=0;strokeColor=#00A4A6;fillColor=#E6F6F7;verticalAlign=top;align=left;spacingLeft=30;fontColor=#147EBA;dashed=0;" vertex="1" parent="1">
          <mxGeometry x="1140" y="681" width="180" height="500" as="geometry" />
        </mxCell>
        <mxCell id="ALdv9pmXkEG0M57BJ0c6-183" value="" style="sketch=0;outlineConnect=0;fontColor=#232F3E;gradientColor=none;fillColor=#8C4FFF;strokeColor=none;dashed=0;verticalLabelPosition=bottom;verticalAlign=top;align=center;html=1;fontSize=12;fontStyle=0;aspect=fixed;pointerEvents=1;shape=mxgraph.aws4.route_table;" vertex="1" parent="ALdv9pmXkEG0M57BJ0c6-182">
          <mxGeometry x="60" y="60" width="60" height="58.46" as="geometry" />
        </mxCell>
        <mxCell id="ALdv9pmXkEG0M57BJ0c6-184" value="Route Table" style="text;html=1;align=center;verticalAlign=middle;resizable=0;points=[];autosize=1;strokeColor=none;fillColor=none;" vertex="1" parent="ALdv9pmXkEG0M57BJ0c6-182">
          <mxGeometry x="45" y="118.46000000000004" width="90" height="30" as="geometry" />
        </mxCell>
        <mxCell id="ALdv9pmXkEG0M57BJ0c6-185" value="Security group" style="fillColor=none;strokeColor=#DD3522;verticalAlign=top;fontStyle=0;fontColor=#DD3522;whiteSpace=wrap;html=1;strokeWidth=2;" vertex="1" parent="ALdv9pmXkEG0M57BJ0c6-182">
          <mxGeometry x="30" y="170" width="120" height="140" as="geometry" />
        </mxCell>
        <mxCell id="ALdv9pmXkEG0M57BJ0c6-186" value="AWS SQS" style="text;html=1;align=center;verticalAlign=middle;resizable=0;points=[];autosize=1;strokeColor=none;fillColor=none;" vertex="1" parent="ALdv9pmXkEG0M57BJ0c6-182">
          <mxGeometry x="50" y="280" width="80" height="30" as="geometry" />
        </mxCell>
        <mxCell id="ALdv9pmXkEG0M57BJ0c6-188" value="Security group" style="fillColor=none;strokeColor=#DD3522;verticalAlign=top;fontStyle=0;fontColor=#DD3522;whiteSpace=wrap;html=1;strokeWidth=2;" vertex="1" parent="ALdv9pmXkEG0M57BJ0c6-182">
          <mxGeometry x="30" y="340" width="120" height="140" as="geometry" />
        </mxCell>
        <mxCell id="ALdv9pmXkEG0M57BJ0c6-189" value="" style="sketch=0;points=[[0,0,0],[0.25,0,0],[0.5,0,0],[0.75,0,0],[1,0,0],[0,1,0],[0.25,1,0],[0.5,1,0],[0.75,1,0],[1,1,0],[0,0.25,0],[0,0.5,0],[0,0.75,0],[1,0.25,0],[1,0.5,0],[1,0.75,0]];outlineConnect=0;fontColor=#232F3E;fillColor=#C925D1;strokeColor=#ffffff;dashed=0;verticalLabelPosition=bottom;verticalAlign=top;align=center;html=1;fontSize=12;fontStyle=0;aspect=fixed;shape=mxgraph.aws4.resourceIcon;resIcon=mxgraph.aws4.elasticache;" vertex="1" parent="ALdv9pmXkEG0M57BJ0c6-182">
          <mxGeometry x="50" y="371" width="78" height="78" as="geometry" />
        </mxCell>
        <mxCell id="ALdv9pmXkEG0M57BJ0c6-190" value="ElastiCache" style="text;html=1;align=center;verticalAlign=middle;resizable=0;points=[];autosize=1;strokeColor=none;fillColor=none;" vertex="1" parent="ALdv9pmXkEG0M57BJ0c6-182">
          <mxGeometry x="45" y="450" width="90" height="30" as="geometry" />
        </mxCell>
        <mxCell id="ALdv9pmXkEG0M57BJ0c6-191" value="" style="outlineConnect=0;dashed=0;verticalLabelPosition=bottom;verticalAlign=top;align=center;html=1;shape=mxgraph.aws3.sqs;fillColor=#D9A741;gradientColor=none;aspect=fixed;" vertex="1" parent="ALdv9pmXkEG0M57BJ0c6-182">
          <mxGeometry x="54.190000000000055" y="200" width="65.81" height="80" as="geometry" />
        </mxCell>
        <mxCell id="ALdv9pmXkEG0M57BJ0c6-192" style="edgeStyle=orthogonalEdgeStyle;rounded=0;orthogonalLoop=1;jettySize=auto;html=1;exitX=1;exitY=0.5;exitDx=0;exitDy=0;entryX=0;entryY=0.5;entryDx=0;entryDy=0;startArrow=classic;startFill=1;" edge="1" parent="1" source="ALdv9pmXkEG0M57BJ0c6-145" target="ALdv9pmXkEG0M57BJ0c6-185">
          <mxGeometry relative="1" as="geometry">
            <Array as="points">
              <mxPoint x="1120" y="1025" />
              <mxPoint x="1120" y="921" />
            </Array>
          </mxGeometry>
        </mxCell>
        <mxCell id="ALdv9pmXkEG0M57BJ0c6-193" style="edgeStyle=orthogonalEdgeStyle;rounded=0;orthogonalLoop=1;jettySize=auto;html=1;exitX=1;exitY=0.5;exitDx=0;exitDy=0;entryX=0;entryY=0.5;entryDx=0;entryDy=0;startArrow=classic;startFill=1;" edge="1" parent="1" source="ALdv9pmXkEG0M57BJ0c6-146" target="ALdv9pmXkEG0M57BJ0c6-188">
          <mxGeometry relative="1" as="geometry">
            <Array as="points">
              <mxPoint x="1120" y="1175" />
              <mxPoint x="1120" y="1091" />
            </Array>
          </mxGeometry>
        </mxCell>
        <mxCell id="ALdv9pmXkEG0M57BJ0c6-194" value="" style="endArrow=none;html=1;rounded=0;" edge="1" parent="1">
          <mxGeometry width="50" height="50" relative="1" as="geometry">
            <mxPoint x="1120" y="990" as="sourcePoint" />
            <mxPoint x="1120" y="1120" as="targetPoint" />
          </mxGeometry>
        </mxCell>
      </root>
    </mxGraphModel>
  </diagram>
</mxfile>
